# MagicaVoxel @ Ephtracy

# group
o 

# material
mtllib cactus.mtl
usemtl palette

# normals
vn -1 0 0
vn 1 0 0
vn 0 0 1
vn 0 0 -1
vn 0 -1 0
vn 0 1 0

# texcoords
vt 0.560547 0.5
vt 0.794922 0.5

# verts
v -2.23517e-008 0.5 0.0999999
v -2.23517e-008 0.5 -7.45058e-008
v -2.23517e-008 0.5 -0.1
v -2.23517e-008 0.5 -0.2
v -2.23517e-008 0.6 -7.45058e-008
v -2.23517e-008 0.6 -0.1
v -2.23517e-008 0.7 0.0999999
v -2.23517e-008 0.7 -0.2
v -2.23517e-008 0.9 -7.45058e-008
v -2.23517e-008 0.9 -0.1
v -2.23517e-008 1 -7.45058e-008
v -2.23517e-008 1 -0.1
v 0.1 0.7 -7.45058e-008
v 0.1 0.7 -0.1
v 0.1 0.8 0.0999999
v 0.1 0.8 -7.45058e-008
v 0.1 0.9 0.0999999
v 0.1 0.9 -7.45058e-008
v 0.1 0.9 -0.1
v 0.1 1 -7.45058e-008
v 0.1 1 -0.1
v 0.1 1 -0.2
v 0.1 1.1 -0.1
v 0.1 1.1 -0.2
v 0.1 1.2 -7.45058e-008
v 0.1 1.2 -0.1
v 0.2 0.5 0.0999999
v 0.2 0.5 -7.45058e-008
v 0.2 0.5 -0.1
v 0.2 0.5 -0.2
v 0.2 0.6 0.0999999
v 0.2 0.6 -7.45058e-008
v 0.2 0.6 -0.1
v 0.2 0.6 -0.2
v 0.1 0.5 0.0999999
v 0.1 0.5 -7.45058e-008
v 0.1 0.5 -0.1
v 0.1 0.5 -0.2
v 0.1 0.6 0.0999999
v 0.1 0.6 -7.45058e-008
v 0.1 0.6 -0.1
v 0.1 0.6 -0.2
v 0.2 0.7 -7.45058e-008
v 0.2 0.7 -0.1
v 0.2 0.8 0.0999999
v 0.2 0.8 -7.45058e-008
v 0.2 0.8 -0.1
v 0.2 0.9 0.0999999
v 0.2 0.9 -7.45058e-008
v 0.2 0.9 -0.1
v 0.2 1 -0.1
v 0.2 1 -0.2
v 0.2 1.1 -0.1
v 0.2 1.1 -0.2
v 0.2 1.2 -7.45058e-008
v 0.2 1.2 -0.1
v 0.3 0.5 0.0999999
v 0.3 0.5 -7.45058e-008
v 0.3 0.5 -0.1
v 0.3 0.5 -0.2
v 0.3 0.6 -7.45058e-008
v 0.3 0.6 -0.1
v 0.3 0.7 0.0999999
v 0.3 0.7 -0.2
v 0.3 0.8 -7.45058e-008
v 0.3 0.8 -0.1
v 0.3 0.9 -7.45058e-008
v 0.3 0.9 -0.1
v -2.23517e-008 0.5 0.0999999
v -2.23517e-008 0.7 0.0999999
v 0.1 0.5 0.0999999
v 0.1 0.6 0.0999999
v 0.1 0.8 0.0999999
v 0.1 0.9 0.0999999
v 0.2 0.5 0.0999999
v 0.2 0.6 0.0999999
v 0.2 0.8 0.0999999
v 0.2 0.9 0.0999999
v 0.3 0.5 0.0999999
v 0.3 0.7 0.0999999
v -2.23517e-008 0.9 -7.45058e-008
v -2.23517e-008 1 -7.45058e-008
v 0.1 0.7 -7.45058e-008
v 0.1 0.8 -7.45058e-008
v 0.1 0.9 -7.45058e-008
v 0.1 1 -7.45058e-008
v 0.1 1.2 -7.45058e-008
v 0.2 0.7 -7.45058e-008
v 0.2 0.8 -7.45058e-008
v 0.2 0.9 -7.45058e-008
v 0.2 1.2 -7.45058e-008
v 0.3 0.8 -7.45058e-008
v 0.3 0.9 -7.45058e-008
v -2.23517e-008 0.5 -0.1
v -2.23517e-008 0.6 -0.1
v 0.1 0.5 -0.1
v 0.1 0.6 -0.1
v 0.2 0.5 -0.1
v 0.2 0.6 -0.1
v 0.3 0.5 -0.1
v 0.3 0.6 -0.1
v -2.23517e-008 0.5 -7.45058e-008
v -2.23517e-008 0.6 -7.45058e-008
v 0.1 0.5 -7.45058e-008
v 0.1 0.6 -7.45058e-008
v 0.2 0.5 -7.45058e-008
v 0.2 0.6 -7.45058e-008
v 0.3 0.5 -7.45058e-008
v 0.3 0.6 -7.45058e-008
v -2.23517e-008 0.9 -0.1
v -2.23517e-008 1 -0.1
v 0.1 0.7 -0.1
v 0.1 0.9 -0.1
v 0.1 1 -0.1
v 0.1 1.1 -0.1
v 0.1 1.2 -0.1
v 0.2 0.7 -0.1
v 0.2 0.8 -0.1
v 0.2 0.9 -0.1
v 0.2 1 -0.1
v 0.2 1.1 -0.1
v 0.2 1.2 -0.1
v 0.3 0.8 -0.1
v 0.3 0.9 -0.1
v -2.23517e-008 0.5 -0.2
v -2.23517e-008 0.7 -0.2
v 0.1 0.5 -0.2
v 0.1 0.6 -0.2
v 0.1 1 -0.2
v 0.1 1.1 -0.2
v 0.2 0.5 -0.2
v 0.2 0.6 -0.2
v 0.2 1 -0.2
v 0.2 1.1 -0.2
v 0.3 0.5 -0.2
v 0.3 0.7 -0.2
v -2.23517e-008 0.5 0.0999999
v 0.1 0.5 0.0999999
v 0.2 0.5 0.0999999
v 0.3 0.5 0.0999999
v -2.23517e-008 0.5 -7.45058e-008
v 0.1 0.5 -7.45058e-008
v 0.2 0.5 -7.45058e-008
v 0.3 0.5 -7.45058e-008
v -2.23517e-008 0.5 -0.1
v 0.1 0.5 -0.1
v 0.2 0.5 -0.1
v 0.3 0.5 -0.1
v -2.23517e-008 0.5 -0.2
v 0.1 0.5 -0.2
v 0.2 0.5 -0.2
v 0.3 0.5 -0.2
v 0.1 0.6 0.0999999
v 0.2 0.6 0.0999999
v -2.23517e-008 0.6 -7.45058e-008
v 0.1 0.6 -7.45058e-008
v 0.2 0.6 -7.45058e-008
v 0.3 0.6 -7.45058e-008
v -2.23517e-008 0.6 -0.1
v 0.1 0.6 -0.1
v 0.2 0.6 -0.1
v 0.3 0.6 -0.1
v 0.1 0.6 -0.2
v 0.2 0.6 -0.2
v 0.1 0.8 0.0999999
v 0.2 0.8 0.0999999
v 0.1 0.8 -7.45058e-008
v 0.2 0.8 -7.45058e-008
v 0.3 0.8 -7.45058e-008
v 0.2 0.8 -0.1
v 0.3 0.8 -0.1
v -2.23517e-008 0.9 -7.45058e-008
v 0.1 0.9 -7.45058e-008
v -2.23517e-008 0.9 -0.1
v 0.1 0.9 -0.1
v 0.1 1 -0.1
v 0.2 1 -0.1
v 0.1 1 -0.2
v 0.2 1 -0.2
v -2.23517e-008 0.7 0.0999999
v 0.3 0.7 0.0999999
v 0.1 0.7 -7.45058e-008
v 0.2 0.7 -7.45058e-008
v 0.1 0.7 -0.1
v 0.2 0.7 -0.1
v -2.23517e-008 0.7 -0.2
v 0.3 0.7 -0.2
v 0.1 0.9 0.0999999
v 0.2 0.9 0.0999999
v 0.1 0.9 -7.45058e-008
v 0.2 0.9 -7.45058e-008
v 0.3 0.9 -7.45058e-008
v 0.2 0.9 -0.1
v 0.3 0.9 -0.1
v -2.23517e-008 1 -7.45058e-008
v 0.1 1 -7.45058e-008
v -2.23517e-008 1 -0.1
v 0.1 1 -0.1
v 0.1 1.1 -0.1
v 0.2 1.1 -0.1
v 0.1 1.1 -0.2
v 0.2 1.1 -0.2
v 0.1 1.2 -7.45058e-008
v 0.2 1.2 -7.45058e-008
v 0.1 1.2 -0.1
v 0.2 1.2 -0.1

# faces
f 5/1/1 2/1/1 1/1/1
f 6/1/1 4/1/1 3/1/1
f 7/1/1 5/1/1 1/1/1
f 7/1/1 6/1/1 5/1/1
f 8/1/1 4/1/1 6/1/1
f 8/1/1 6/1/1 7/1/1
f 11/2/1 10/2/1 9/2/1
f 12/2/1 10/2/1 11/2/1
f 16/2/1 14/2/1 13/2/1
f 17/2/1 16/2/1 15/2/1
f 18/2/1 14/2/1 16/2/1
f 18/2/1 16/2/1 17/2/1
f 19/2/1 14/2/1 18/2/1
f 23/2/1 21/2/1 20/2/1
f 23/2/1 22/2/1 21/2/1
f 24/2/1 22/2/1 23/2/1
f 25/2/1 23/2/1 20/2/1
f 26/2/1 23/2/1 25/2/1
f 31/1/1 28/1/1 27/1/1
f 32/1/1 28/1/1 31/1/1
f 33/1/1 30/1/1 29/1/1
f 34/1/1 30/1/1 33/1/1
f 35/1/2 36/1/2 39/1/2
f 39/1/2 36/1/2 40/1/2
f 37/1/2 38/1/2 41/1/2
f 41/1/2 38/1/2 42/1/2
f 43/2/2 44/2/2 46/2/2
f 46/2/2 44/2/2 47/2/2
f 45/2/2 46/2/2 48/2/2
f 48/2/2 46/2/2 49/2/2
f 49/2/2 50/2/2 51/2/2
f 49/2/2 51/2/2 53/2/2
f 51/2/2 52/2/2 53/2/2
f 53/2/2 52/2/2 54/2/2
f 49/2/2 53/2/2 55/2/2
f 55/2/2 53/2/2 56/2/2
f 57/1/2 58/1/2 61/1/2
f 59/1/2 60/1/2 62/1/2
f 57/1/2 61/1/2 63/1/2
f 61/1/2 62/1/2 63/1/2
f 62/1/2 60/1/2 64/1/2
f 63/1/2 62/1/2 64/1/2
f 65/2/2 66/2/2 67/2/2
f 67/2/2 66/2/2 68/2/2
f 71/1/3 70/1/3 69/1/3
f 72/1/3 70/1/3 71/1/3
f 76/1/3 70/1/3 72/1/3
f 77/2/3 74/2/3 73/2/3
f 78/2/3 74/2/3 77/2/3
f 79/1/3 76/1/3 75/1/3
f 80/1/3 70/1/3 76/1/3
f 80/1/3 76/1/3 79/1/3
f 85/2/3 82/2/3 81/2/3
f 86/2/3 82/2/3 85/2/3
f 88/2/3 84/2/3 83/2/3
f 89/2/3 84/2/3 88/2/3
f 90/2/3 87/2/3 86/2/3
f 90/2/3 86/2/3 85/2/3
f 91/2/3 87/2/3 90/2/3
f 92/2/3 90/2/3 89/2/3
f 93/2/3 90/2/3 92/2/3
f 96/1/3 95/1/3 94/1/3
f 97/1/3 95/1/3 96/1/3
f 100/1/3 99/1/3 98/1/3
f 101/1/3 99/1/3 100/1/3
f 102/1/4 103/1/4 104/1/4
f 104/1/4 103/1/4 105/1/4
f 106/1/4 107/1/4 108/1/4
f 108/1/4 107/1/4 109/1/4
f 110/2/4 111/2/4 113/2/4
f 113/2/4 111/2/4 114/2/4
f 112/2/4 113/2/4 117/2/4
f 113/2/4 114/2/4 117/2/4
f 117/2/4 114/2/4 118/2/4
f 118/2/4 114/2/4 119/2/4
f 119/2/4 114/2/4 120/2/4
f 115/2/4 116/2/4 121/2/4
f 121/2/4 116/2/4 122/2/4
f 118/2/4 119/2/4 123/2/4
f 123/2/4 119/2/4 124/2/4
f 125/1/4 126/1/4 127/1/4
f 127/1/4 126/1/4 128/1/4
f 128/1/4 126/1/4 132/1/4
f 129/2/4 130/2/4 133/2/4
f 133/2/4 130/2/4 134/2/4
f 131/1/4 132/1/4 135/1/4
f 132/1/4 126/1/4 136/1/4
f 135/1/4 132/1/4 136/1/4
f 141/1/5 138/1/5 137/1/5
f 142/1/5 138/1/5 141/1/5
f 143/1/5 140/1/5 139/1/5
f 144/1/5 140/1/5 143/1/5
f 149/1/5 146/1/5 145/1/5
f 150/1/5 146/1/5 149/1/5
f 151/1/5 148/1/5 147/1/5
f 152/1/5 148/1/5 151/1/5
f 156/1/5 154/1/5 153/1/5
f 157/1/5 154/1/5 156/1/5
f 159/1/5 156/1/5 155/1/5
f 160/2/5 157/2/5 156/2/5
f 160/1/5 156/1/5 159/1/5
f 161/1/5 158/1/5 157/1/5
f 161/2/5 157/2/5 160/2/5
f 162/1/5 158/1/5 161/1/5
f 163/1/5 161/1/5 160/1/5
f 164/1/5 161/1/5 163/1/5
f 167/2/5 166/2/5 165/2/5
f 168/2/5 166/2/5 167/2/5
f 170/2/5 169/2/5 168/2/5
f 171/2/5 169/2/5 170/2/5
f 174/2/5 173/2/5 172/2/5
f 175/2/5 173/2/5 174/2/5
f 178/2/5 177/2/5 176/2/5
f 179/2/5 177/2/5 178/2/5
f 180/1/6 181/1/6 182/1/6
f 182/1/6 181/1/6 183/1/6
f 180/1/6 182/1/6 184/1/6
f 183/1/6 181/1/6 185/1/6
f 180/1/6 184/1/6 186/1/6
f 184/1/6 185/1/6 186/1/6
f 185/1/6 181/1/6 187/1/6
f 186/1/6 185/1/6 187/1/6
f 188/2/6 189/2/6 190/2/6
f 190/2/6 189/2/6 191/2/6
f 191/2/6 192/2/6 193/2/6
f 193/2/6 192/2/6 194/2/6
f 195/2/6 196/2/6 197/2/6
f 197/2/6 196/2/6 198/2/6
f 199/2/6 200/2/6 201/2/6
f 201/2/6 200/2/6 202/2/6
f 203/2/6 204/2/6 205/2/6
f 205/2/6 204/2/6 206/2/6
