# MagicaVoxel @ Ephtracy

# group
o 

# material
mtllib small wardrope.mtl
usemtl palette

# normals
vn -1 0 0
vn 1 0 0
vn 0 0 1
vn 0 0 -1
vn 0 -1 0
vn 0 1 0

# texcoords
vt 0.966797 0.5
vt 0.982422 0.5

# verts
v -2.23517e-008 0.2 -0.1
v -2.23517e-008 0.2 -0.2
v -2.23517e-008 0.3 -0.1
v -2.23517e-008 0.3 -0.2
v -2.23517e-008 0.6 -0.1
v -2.23517e-008 0.6 -0.2
v -2.23517e-008 0.7 -0.1
v -2.23517e-008 0.7 -0.2
v -2.23517e-008 1 -0.1
v -2.23517e-008 1 -0.2
v -2.23517e-008 1.1 -0.1
v -2.23517e-008 1.1 -0.2
v 0.1 0 0.2
v 0.1 0 -0.5
v 0.1 0.2 -0.1
v 0.1 0.2 -0.2
v 0.1 0.3 0.2
v 0.1 0.3 -0.1
v 0.1 0.3 -0.2
v 0.1 0.3 -0.5
v 0.1 0.4 0.2
v 0.1 0.4 -0.5
v 0.1 0.6 -0.1
v 0.1 0.6 -0.2
v 0.1 0.7 0.2
v 0.1 0.7 -0.1
v 0.1 0.7 -0.2
v 0.1 0.7 -0.5
v 0.1 0.8 0.2
v 0.1 0.8 -0.5
v 0.1 1 -0.1
v 0.1 1 -0.2
v 0.1 1.1 0.2
v 0.1 1.1 -0.1
v 0.1 1.1 -0.2
v 0.1 1.1 -0.5
v 1 0 0.2
v 1 0 -0.5
v 1 1.1 0.2
v 1 1.1 -0.5
v 0.1 0 0.2
v 0.1 0.3 0.2
v 0.1 0.4 0.2
v 0.1 0.7 0.2
v 0.1 0.8 0.2
v 0.1 1.1 0.2
v 0.2 0.3 0.2
v 0.2 0.4 0.2
v 0.2 0.7 0.2
v 0.2 0.8 0.2
v 1 0 0.2
v 1 1.1 0.2
v -2.23517e-008 0.2 -0.1
v -2.23517e-008 0.3 -0.1
v -2.23517e-008 0.6 -0.1
v -2.23517e-008 0.7 -0.1
v -2.23517e-008 1 -0.1
v -2.23517e-008 1.1 -0.1
v 0.1 0.2 -0.1
v 0.1 0.3 -0.1
v 0.1 0.6 -0.1
v 0.1 0.7 -0.1
v 0.1 1 -0.1
v 0.1 1.1 -0.1
v -2.23517e-008 0.2 -0.2
v -2.23517e-008 0.3 -0.2
v -2.23517e-008 0.6 -0.2
v -2.23517e-008 0.7 -0.2
v -2.23517e-008 1 -0.2
v -2.23517e-008 1.1 -0.2
v 0.1 0.2 -0.2
v 0.1 0.3 -0.2
v 0.1 0.6 -0.2
v 0.1 0.7 -0.2
v 0.1 1 -0.2
v 0.1 1.1 -0.2
v 0.1 0 -0.5
v 0.1 0.3 -0.5
v 0.1 0.4 -0.5
v 0.1 0.7 -0.5
v 0.1 0.8 -0.5
v 0.1 1.1 -0.5
v 0.2 0.3 -0.5
v 0.2 0.4 -0.5
v 0.2 0.7 -0.5
v 0.2 0.8 -0.5
v 1 0 -0.5
v 1 1.1 -0.5
v 0.1 0 0.2
v 1 0 0.2
v 0.1 0 -0.5
v 1 0 -0.5
v -2.23517e-008 0.2 -0.1
v 0.1 0.2 -0.1
v -2.23517e-008 0.2 -0.2
v 0.1 0.2 -0.2
v -2.23517e-008 0.6 -0.1
v 0.1 0.6 -0.1
v -2.23517e-008 0.6 -0.2
v 0.1 0.6 -0.2
v -2.23517e-008 1 -0.1
v 0.1 1 -0.1
v -2.23517e-008 1 -0.2
v 0.1 1 -0.2
v -2.23517e-008 0.3 -0.1
v 0.1 0.3 -0.1
v -2.23517e-008 0.3 -0.2
v 0.1 0.3 -0.2
v -2.23517e-008 0.7 -0.1
v 0.1 0.7 -0.1
v -2.23517e-008 0.7 -0.2
v 0.1 0.7 -0.2
v 0.1 1.1 0.2
v 1 1.1 0.2
v -2.23517e-008 1.1 -0.1
v 0.1 1.1 -0.1
v -2.23517e-008 1.1 -0.2
v 0.1 1.1 -0.2
v 0.1 1.1 -0.5
v 1 1.1 -0.5

# faces
f 3/2/1 2/2/1 1/2/1
f 4/2/1 2/2/1 3/2/1
f 7/2/1 6/2/1 5/2/1
f 8/2/1 6/2/1 7/2/1
f 11/2/1 10/2/1 9/2/1
f 12/2/1 10/2/1 11/2/1
f 15/1/1 14/1/1 13/1/1
f 16/1/1 14/1/1 15/1/1
f 17/1/1 15/1/1 13/1/1
f 18/1/1 15/1/1 17/1/1
f 19/1/1 14/1/1 16/1/1
f 20/1/1 14/1/1 19/1/1
f 21/2/1 18/2/1 17/2/1
f 21/2/1 19/2/1 18/2/1
f 21/2/1 20/2/1 19/2/1
f 22/2/1 20/2/1 21/2/1
f 23/1/1 22/1/1 21/1/1
f 24/1/1 22/1/1 23/1/1
f 25/1/1 23/1/1 21/1/1
f 26/1/1 23/1/1 25/1/1
f 27/1/1 22/1/1 24/1/1
f 28/1/1 22/1/1 27/1/1
f 29/2/1 26/2/1 25/2/1
f 29/2/1 27/2/1 26/2/1
f 29/2/1 28/2/1 27/2/1
f 30/2/1 28/2/1 29/2/1
f 31/1/1 30/1/1 29/1/1
f 32/1/1 30/1/1 31/1/1
f 33/1/1 31/1/1 29/1/1
f 34/1/1 31/1/1 33/1/1
f 35/1/1 30/1/1 32/1/1
f 36/1/1 30/1/1 35/1/1
f 37/1/2 38/1/2 39/1/2
f 39/1/2 38/1/2 40/1/2
f 47/1/3 42/1/3 41/1/3
f 47/2/3 43/2/3 42/2/3
f 48/1/3 44/1/3 43/1/3
f 48/2/3 43/2/3 47/2/3
f 49/2/3 45/2/3 44/2/3
f 49/1/3 44/1/3 48/1/3
f 50/1/3 46/1/3 45/1/3
f 50/2/3 45/2/3 49/2/3
f 51/1/3 49/1/3 48/1/3
f 51/1/3 48/1/3 47/1/3
f 51/1/3 50/1/3 49/1/3
f 51/1/3 47/1/3 41/1/3
f 52/1/3 46/1/3 50/1/3
f 52/1/3 50/1/3 51/1/3
f 59/2/3 54/2/3 53/2/3
f 60/2/3 54/2/3 59/2/3
f 61/2/3 56/2/3 55/2/3
f 62/2/3 56/2/3 61/2/3
f 63/2/3 58/2/3 57/2/3
f 64/2/3 58/2/3 63/2/3
f 65/2/4 66/2/4 71/2/4
f 71/2/4 66/2/4 72/2/4
f 67/2/4 68/2/4 73/2/4
f 73/2/4 68/2/4 74/2/4
f 69/2/4 70/2/4 75/2/4
f 75/2/4 70/2/4 76/2/4
f 77/1/4 78/1/4 83/1/4
f 78/2/4 79/2/4 83/2/4
f 79/1/4 80/1/4 84/1/4
f 83/2/4 79/2/4 84/2/4
f 80/2/4 81/2/4 85/2/4
f 84/1/4 80/1/4 85/1/4
f 81/1/4 82/1/4 86/1/4
f 85/2/4 81/2/4 86/2/4
f 84/1/4 85/1/4 87/1/4
f 83/1/4 84/1/4 87/1/4
f 85/1/4 86/1/4 87/1/4
f 77/1/4 83/1/4 87/1/4
f 86/1/4 82/1/4 88/1/4
f 87/1/4 86/1/4 88/1/4
f 91/1/5 90/1/5 89/1/5
f 92/1/5 90/1/5 91/1/5
f 95/2/5 94/2/5 93/2/5
f 96/2/5 94/2/5 95/2/5
f 99/2/5 98/2/5 97/2/5
f 100/2/5 98/2/5 99/2/5
f 103/2/5 102/2/5 101/2/5
f 104/2/5 102/2/5 103/2/5
f 105/2/6 106/2/6 107/2/6
f 107/2/6 106/2/6 108/2/6
f 109/2/6 110/2/6 111/2/6
f 111/2/6 110/2/6 112/2/6
f 113/1/6 114/1/6 116/1/6
f 115/2/6 116/2/6 117/2/6
f 116/1/6 114/1/6 118/1/6
f 117/2/6 116/2/6 118/2/6
f 118/1/6 114/1/6 119/1/6
f 119/1/6 114/1/6 120/1/6
