# MagicaVoxel @ Ephtracy

# group
o 

# material
mtllib car.mtl
usemtl palette

# normals
vn -1 0 0
vn 1 0 0
vn 0 0 1
vn 0 0 -1
vn 0 -1 0
vn 0 1 0

# texcoords
vt 0.115234 0.5
vt 0.845703 0.5
vt 0.970703 0.5
vt 0.974609 0.5
vt 0.978516 0.5
vt 0.982422 0.5
vt 0.994141 0.5

# verts
v -1.2 0.5 -2.98023e-008
v -1.2 0.5 -0.1
v -1.2 0.7 -2.98023e-008
v -1.2 0.7 -0.1
v -1 0.5 0.3
v -1 0.5 0.2
v -1 0.5 -2.98023e-008
v -1 0.5 -0.1
v -1 0.5 -0.3
v -1 0.5 -0.5
v -1 0.5 -0.6
v -1 0.6 0.3
v -1 0.6 0.2
v -1 0.6 -2.98023e-008
v -1 0.6 -0.1
v -1 0.6 -0.3
v -1 0.6 -0.5
v -1 0.6 -0.6
v -1 0.7 0.3
v -1 0.7 0.2
v -1 0.7 -2.98023e-008
v -1 0.7 -0.3
v -1 0.7 -0.5
v -1 0.7 -0.6
v -1 0.8 -2.98023e-008
v -1 0.8 -0.3
v -1 0.9 0.3
v -1 0.9 -2.98023e-008
v -1 0.9 -0.3
v -1 0.9 -0.6
v -0.8 0.4 0.3
v -0.8 0.4 0.2
v -0.8 0.4 -0.5
v -0.8 0.4 -0.6
v -0.8 0.5 0.3
v -0.8 0.5 0.2
v -0.8 0.5 -0.5
v -0.8 0.5 -0.6
v -0.8 0.9 0.3
v -0.8 0.9 -2.98023e-008
v -0.8 0.9 -0.3
v -0.8 0.9 -0.6
v -0.8 1.4 0.3
v -0.8 1.4 -2.98023e-008
v -0.8 1.4 -0.3
v -0.8 1.4 -0.6
v 0.3 0.4 0.3
v 0.3 0.4 0.2
v 0.3 0.4 -0.5
v 0.3 0.4 -0.6
v 0.3 0.5 0.3
v 0.3 0.5 0.2
v 0.3 0.5 -0.5
v 0.3 0.5 -0.6
v -1.1 0.6 -2.98023e-008
v -1.1 0.6 -0.1
v -1.1 0.7 -2.98023e-008
v -1.1 0.7 -0.1
v -0.5 0.4 0.3
v -0.5 0.4 0.2
v -0.5 0.4 -0.5
v -0.5 0.4 -0.6
v -0.5 0.5 0.3
v -0.5 0.5 0.2
v -0.5 0.5 -0.5
v -0.5 0.5 -0.6
v 0.3 0.9 0.3
v 0.3 0.9 -2.98023e-008
v 0.3 0.9 -0.3
v 0.3 0.9 -0.6
v 0.3 1 0.2
v 0.3 1 -2.98023e-008
v 0.3 1 -0.3
v 0.3 1 -0.5
v 0.3 1.3 0.2
v 0.3 1.3 -2.98023e-008
v 0.3 1.3 -0.3
v 0.3 1.3 -0.5
v 0.3 1.4 0.3
v 0.3 1.4 -2.98023e-008
v 0.3 1.4 -0.3
v 0.3 1.4 -0.6
v 0.6 0.4 0.3
v 0.6 0.4 0.2
v 0.6 0.4 -0.5
v 0.6 0.4 -0.6
v 0.6 0.5 0.3
v 0.6 0.5 0.2
v 0.6 0.5 -0.5
v 0.6 0.5 -0.6
v 0.9 0.7 0.3
v 0.9 0.7 0.2
v 0.9 0.7 -2.98023e-008
v 0.9 0.7 -0.3
v 0.9 0.7 -0.5
v 0.9 0.7 -0.6
v 0.9 0.8 0.2
v 0.9 0.8 -2.98023e-008
v 0.9 0.8 -0.3
v 0.9 0.8 -0.5
v 0.9 0.9 0.3
v 0.9 0.9 -2.98023e-008
v 0.9 0.9 -0.3
v 0.9 0.9 -0.6
v 1 0.5 0.3
v 1 0.5 -0.6
v 1 0.6 0.3
v 1 0.6 0.2
v 1 0.6 -2.98023e-008
v 1 0.6 -0.3
v 1 0.6 -0.5
v 1 0.6 -0.6
v 1 0.7 0.3
v 1 0.7 0.2
v 1 0.7 -2.98023e-008
v 1 0.7 -0.3
v 1 0.7 -0.5
v 1 0.7 -0.6
v 1 0.8 0.2
v 1 0.8 -2.98023e-008
v 1 0.8 -0.3
v 1 0.8 -0.5
v -1 0.5 0.3
v -1 0.6 0.3
v -1 0.7 0.3
v -1 0.9 0.3
v -0.8 0.4 0.3
v -0.8 0.5 0.3
v -0.8 0.6 0.3
v -0.8 0.7 0.3
v -0.8 0.9 0.3
v -0.8 1.4 0.3
v -0.7 0.5 0.3
v -0.7 0.6 0.3
v -0.7 1 0.3
v -0.7 1.3 0.3
v -0.6 0.5 0.3
v -0.6 0.6 0.3
v -0.5 0.4 0.3
v -0.5 0.5 0.3
v -0.5 0.6 0.3
v -0.5 0.7 0.3
v -0.3 1 0.3
v -0.3 1.3 0.3
v -0.2 1 0.3
v -0.2 1.3 0.3
v 0.2 1 0.3
v 0.2 1.3 0.3
v 0.3 0.4 0.3
v 0.3 0.5 0.3
v 0.3 0.6 0.3
v 0.3 0.7 0.3
v 0.3 0.9 0.3
v 0.3 1.4 0.3
v 0.4 0.5 0.3
v 0.4 0.6 0.3
v 0.5 0.5 0.3
v 0.5 0.6 0.3
v 0.6 0.4 0.3
v 0.6 0.5 0.3
v 0.6 0.6 0.3
v 0.6 0.7 0.3
v 0.9 0.6 0.3
v 0.9 0.7 0.3
v 0.9 0.9 0.3
v 1 0.5 0.3
v 1 0.6 0.3
v 1 0.7 0.3
v 0.9 0.7 0.2
v 0.9 0.8 0.2
v 1 0.7 0.2
v 1 0.8 0.2
v -1.2 0.5 -2.98023e-008
v -1.2 0.7 -2.98023e-008
v -1.1 0.6 -2.98023e-008
v -1.1 0.7 -2.98023e-008
v -1 0.5 -2.98023e-008
v -1 0.6 -2.98023e-008
v 0.9 0.7 -0.3
v 0.9 0.8 -0.3
v 1 0.7 -0.3
v 1 0.8 -0.3
v -0.8 0.4 -0.5
v -0.8 0.5 -0.5
v -0.5 0.4 -0.5
v -0.5 0.5 -0.5
v 0.3 0.4 -0.5
v 0.3 0.5 -0.5
v 0.6 0.4 -0.5
v 0.6 0.5 -0.5
v -0.8 0.4 0.2
v -0.8 0.5 0.2
v -0.5 0.4 0.2
v -0.5 0.5 0.2
v 0.3 0.4 0.2
v 0.3 0.5 0.2
v 0.6 0.4 0.2
v 0.6 0.5 0.2
v 0.9 0.7 -2.98023e-008
v 0.9 0.8 -2.98023e-008
v 1 0.7 -2.98023e-008
v 1 0.8 -2.98023e-008
v -1.2 0.5 -0.1
v -1.2 0.7 -0.1
v -1.1 0.6 -0.1
v -1.1 0.7 -0.1
v -1 0.5 -0.1
v -1 0.6 -0.1
v 0.9 0.7 -0.5
v 0.9 0.8 -0.5
v 1 0.7 -0.5
v 1 0.8 -0.5
v -1 0.5 -0.6
v -1 0.6 -0.6
v -1 0.7 -0.6
v -1 0.9 -0.6
v -0.8 0.4 -0.6
v -0.8 0.5 -0.6
v -0.8 0.6 -0.6
v -0.8 0.7 -0.6
v -0.8 0.9 -0.6
v -0.8 1.4 -0.6
v -0.7 0.5 -0.6
v -0.7 0.6 -0.6
v -0.7 1 -0.6
v -0.7 1.3 -0.6
v -0.6 0.5 -0.6
v -0.6 0.6 -0.6
v -0.5 0.4 -0.6
v -0.5 0.5 -0.6
v -0.5 0.6 -0.6
v -0.5 0.7 -0.6
v -0.3 1 -0.6
v -0.3 1.3 -0.6
v -0.2 1 -0.6
v -0.2 1.3 -0.6
v 0.2 1 -0.6
v 0.2 1.3 -0.6
v 0.3 0.4 -0.6
v 0.3 0.5 -0.6
v 0.3 0.6 -0.6
v 0.3 0.7 -0.6
v 0.3 0.9 -0.6
v 0.3 1.4 -0.6
v 0.4 0.5 -0.6
v 0.4 0.6 -0.6
v 0.5 0.5 -0.6
v 0.5 0.6 -0.6
v 0.6 0.4 -0.6
v 0.6 0.5 -0.6
v 0.6 0.6 -0.6
v 0.6 0.7 -0.6
v 0.9 0.6 -0.6
v 0.9 0.7 -0.6
v 0.9 0.9 -0.6
v 1 0.5 -0.6
v 1 0.6 -0.6
v 1 0.7 -0.6
v -0.8 0.4 0.3
v -0.5 0.4 0.3
v 0.3 0.4 0.3
v 0.6 0.4 0.3
v -0.8 0.4 0.2
v -0.5 0.4 0.2
v 0.3 0.4 0.2
v 0.6 0.4 0.2
v -0.8 0.4 -0.5
v -0.5 0.4 -0.5
v 0.3 0.4 -0.5
v 0.6 0.4 -0.5
v -0.8 0.4 -0.6
v -0.5 0.4 -0.6
v 0.3 0.4 -0.6
v 0.6 0.4 -0.6
v -1 0.5 0.3
v -0.8 0.5 0.3
v -0.5 0.5 0.3
v 0.3 0.5 0.3
v 0.6 0.5 0.3
v 1 0.5 0.3
v -1 0.5 0.2
v -0.9 0.5 0.2
v -0.8 0.5 0.2
v -0.5 0.5 0.2
v 0.3 0.5 0.2
v 0.6 0.5 0.2
v 0.7 0.5 0.2
v -1.2 0.5 -2.98023e-008
v -1 0.5 -2.98023e-008
v -0.9 0.5 -2.98023e-008
v -1.2 0.5 -0.1
v -1 0.5 -0.1
v -1 0.5 -0.3
v -0.9 0.5 -0.3
v -1 0.5 -0.5
v -0.9 0.5 -0.5
v -0.8 0.5 -0.5
v -0.5 0.5 -0.5
v 0.3 0.5 -0.5
v 0.6 0.5 -0.5
v 0.7 0.5 -0.5
v -1 0.5 -0.6
v -0.8 0.5 -0.6
v -0.5 0.5 -0.6
v 0.3 0.5 -0.6
v 0.6 0.5 -0.6
v 1 0.5 -0.6
v -1.1 0.6 -2.98023e-008
v -1 0.6 -2.98023e-008
v -1.1 0.6 -0.1
v -1 0.6 -0.1
v 0.9 0.7 0.3
v 1 0.7 0.3
v 0.9 0.7 0.2
v 1 0.7 0.2
v -1.2 0.7 -2.98023e-008
v -1.1 0.7 -2.98023e-008
v 0.9 0.7 -2.98023e-008
v 1 0.7 -2.98023e-008
v -1.2 0.7 -0.1
v -1.1 0.7 -0.1
v 0.9 0.7 -0.3
v 1 0.7 -0.3
v 0.9 0.7 -0.5
v 1 0.7 -0.5
v 0.9 0.7 -0.6
v 1 0.7 -0.6
v 0.9 0.8 0.2
v 1 0.8 0.2
v 0.9 0.8 -2.98023e-008
v 1 0.8 -2.98023e-008
v 0.9 0.8 -0.3
v 1 0.8 -0.3
v 0.9 0.8 -0.5
v 1 0.8 -0.5
v -1 0.9 0.3
v -0.8 0.9 0.3
v 0.3 0.9 0.3
v 0.9 0.9 0.3
v -1 0.9 -2.98023e-008
v -0.9 0.9 -2.98023e-008
v -0.8 0.9 -2.98023e-008
v 0.3 0.9 -2.98023e-008
v 0.8 0.9 -2.98023e-008
v 0.9 0.9 -2.98023e-008
v -1 0.9 -0.3
v -0.9 0.9 -0.3
v -0.8 0.9 -0.3
v 0.3 0.9 -0.3
v 0.8 0.9 -0.3
v 0.9 0.9 -0.3
v -1 0.9 -0.6
v -0.8 0.9 -0.6
v 0.3 0.9 -0.6
v 0.9 0.9 -0.6
v -0.8 1.4 0.3
v 0.3 1.4 0.3
v -0.8 1.4 -2.98023e-008
v 0.3 1.4 -2.98023e-008
v -0.8 1.4 -0.3
v 0.3 1.4 -0.3
v -0.8 1.4 -0.6
v 0.3 1.4 -0.6

# faces
f 3/7/1 2/7/1 1/7/1
f 4/7/1 2/7/1 3/7/1
f 12/5/1 6/5/1 5/5/1
f 13/4/1 7/4/1 6/4/1
f 13/5/1 6/5/1 12/5/1
f 14/4/1 7/4/1 13/4/1
f 15/5/1 9/5/1 8/5/1
f 16/4/1 10/4/1 9/4/1
f 16/5/1 9/5/1 15/5/1
f 17/5/1 11/5/1 10/5/1
f 17/4/1 10/4/1 16/4/1
f 18/5/1 11/5/1 17/5/1
f 19/1/1 13/1/1 12/1/1
f 20/4/1 14/4/1 13/4/1
f 20/1/1 13/1/1 19/1/1
f 21/1/1 16/1/1 15/1/1
f 21/4/1 14/4/1 20/4/1
f 21/1/1 15/1/1 14/1/1
f 22/4/1 17/4/1 16/4/1
f 22/1/1 16/1/1 21/1/1
f 23/1/1 18/1/1 17/1/1
f 23/4/1 17/4/1 22/4/1
f 24/1/1 18/1/1 23/1/1
f 25/2/1 20/2/1 19/2/1
f 25/2/1 22/2/1 21/2/1
f 25/2/1 24/2/1 23/2/1
f 25/2/1 23/2/1 22/2/1
f 25/2/1 21/2/1 20/2/1
f 26/2/1 24/2/1 25/2/1
f 27/2/1 25/2/1 19/2/1
f 28/7/1 26/7/1 25/7/1
f 28/2/1 25/2/1 27/2/1
f 29/2/1 24/2/1 26/2/1
f 29/7/1 26/7/1 28/7/1
f 30/2/1 24/2/1 29/2/1
f 35/7/1 32/7/1 31/7/1
f 36/7/1 32/7/1 35/7/1
f 37/7/1 34/7/1 33/7/1
f 38/7/1 34/7/1 37/7/1
f 43/2/1 40/2/1 39/2/1
f 44/6/1 41/6/1 40/6/1
f 44/2/1 40/2/1 43/2/1
f 45/2/1 42/2/1 41/2/1
f 45/6/1 41/6/1 44/6/1
f 46/2/1 42/2/1 45/2/1
f 51/7/1 48/7/1 47/7/1
f 52/7/1 48/7/1 51/7/1
f 53/7/1 50/7/1 49/7/1
f 54/7/1 50/7/1 53/7/1
f 55/7/2 56/7/2 57/7/2
f 57/7/2 56/7/2 58/7/2
f 59/7/2 60/7/2 63/7/2
f 63/7/2 60/7/2 64/7/2
f 61/7/2 62/7/2 65/7/2
f 65/7/2 62/7/2 66/7/2
f 67/2/2 68/2/2 71/2/2
f 68/6/2 69/6/2 72/6/2
f 71/2/2 68/2/2 72/2/2
f 69/2/2 70/2/2 73/2/2
f 72/6/2 69/6/2 73/6/2
f 73/2/2 70/2/2 74/2/2
f 71/7/2 72/7/2 75/7/2
f 67/2/2 71/2/2 75/2/2
f 73/7/2 74/7/2 75/7/2
f 72/7/2 73/7/2 75/7/2
f 75/7/2 74/7/2 76/7/2
f 76/7/2 74/7/2 77/7/2
f 74/2/2 70/2/2 78/2/2
f 77/7/2 74/7/2 78/7/2
f 67/2/2 75/2/2 79/2/2
f 75/2/2 76/2/2 79/2/2
f 76/6/2 77/6/2 80/6/2
f 79/2/2 76/2/2 80/2/2
f 77/2/2 78/2/2 81/2/2
f 80/6/2 77/6/2 81/6/2
f 78/2/2 70/2/2 82/2/2
f 81/2/2 78/2/2 82/2/2
f 83/7/2 84/7/2 87/7/2
f 87/7/2 84/7/2 88/7/2
f 85/7/2 86/7/2 89/7/2
f 89/7/2 86/7/2 90/7/2
f 91/2/2 92/2/2 97/2/2
f 93/2/2 94/2/2 98/2/2
f 98/2/2 94/2/2 99/2/2
f 95/2/2 96/2/2 100/2/2
f 91/2/2 97/2/2 101/2/2
f 97/2/2 98/2/2 101/2/2
f 98/7/2 99/7/2 102/7/2
f 101/2/2 98/2/2 102/2/2
f 99/2/2 100/2/2 103/2/2
f 102/7/2 99/7/2 103/7/2
f 100/2/2 96/2/2 104/2/2
f 103/2/2 100/2/2 104/2/2
f 105/5/2 106/5/2 107/5/2
f 107/5/2 106/5/2 108/5/2
f 108/5/2 106/5/2 109/5/2
f 109/5/2 106/5/2 110/5/2
f 110/5/2 106/5/2 111/5/2
f 111/5/2 106/5/2 112/5/2
f 107/3/2 108/3/2 113/3/2
f 108/4/2 109/4/2 114/4/2
f 113/3/2 108/3/2 114/3/2
f 109/3/2 110/3/2 115/3/2
f 114/4/2 109/4/2 115/4/2
f 110/4/2 111/4/2 116/4/2
f 115/3/2 110/3/2 116/3/2
f 111/3/2 112/3/2 117/3/2
f 116/4/2 111/4/2 117/4/2
f 117/3/2 112/3/2 118/3/2
f 114/4/2 115/4/2 119/4/2
f 119/4/2 115/4/2 120/4/2
f 116/4/2 117/4/2 121/4/2
f 121/4/2 117/4/2 122/4/2
f 128/5/3 124/5/3 123/5/3
f 129/1/3 125/1/3 124/1/3
f 129/5/3 124/5/3 128/5/3
f 130/2/3 126/2/3 125/2/3
f 130/1/3 125/1/3 129/1/3
f 131/2/3 126/2/3 130/2/3
f 133/7/3 129/7/3 128/7/3
f 133/7/3 128/7/3 127/7/3
f 133/7/3 130/7/3 129/7/3
f 134/7/3 130/7/3 133/7/3
f 135/2/3 132/2/3 131/2/3
f 135/2/3 131/2/3 130/2/3
f 136/2/3 132/2/3 135/2/3
f 137/4/3 134/4/3 133/4/3
f 137/7/3 133/7/3 127/7/3
f 138/7/3 130/7/3 134/7/3
f 138/4/3 134/4/3 137/4/3
f 139/7/3 137/7/3 127/7/3
f 139/7/3 138/7/3 137/7/3
f 140/7/3 138/7/3 139/7/3
f 141/7/3 130/7/3 138/7/3
f 141/7/3 138/7/3 140/7/3
f 142/2/3 135/2/3 130/2/3
f 142/7/3 130/7/3 141/7/3
f 143/2/3 135/2/3 142/2/3
f 143/7/3 136/7/3 135/7/3
f 144/2/3 132/2/3 136/2/3
f 144/7/3 136/7/3 143/7/3
f 145/2/3 143/2/3 142/2/3
f 145/2/3 144/2/3 143/2/3
f 146/2/3 132/2/3 144/2/3
f 146/2/3 144/2/3 145/2/3
f 147/2/3 145/2/3 142/2/3
f 147/7/3 146/7/3 145/7/3
f 148/2/3 132/2/3 146/2/3
f 148/7/3 146/7/3 147/7/3
f 150/5/3 141/5/3 140/5/3
f 151/1/3 142/1/3 141/1/3
f 151/5/3 141/5/3 150/5/3
f 152/2/3 147/2/3 142/2/3
f 152/1/3 142/1/3 151/1/3
f 152/2/3 148/2/3 147/2/3
f 153/2/3 148/2/3 152/2/3
f 154/2/3 132/2/3 148/2/3
f 154/2/3 148/2/3 153/2/3
f 155/7/3 150/7/3 149/7/3
f 155/7/3 151/7/3 150/7/3
f 155/7/3 152/7/3 151/7/3
f 156/7/3 152/7/3 155/7/3
f 157/7/3 155/7/3 149/7/3
f 157/4/3 156/4/3 155/4/3
f 158/7/3 152/7/3 156/7/3
f 158/4/3 156/4/3 157/4/3
f 159/7/3 157/7/3 149/7/3
f 159/7/3 158/7/3 157/7/3
f 160/7/3 158/7/3 159/7/3
f 161/7/3 152/7/3 158/7/3
f 161/7/3 158/7/3 160/7/3
f 162/2/3 153/2/3 152/2/3
f 162/7/3 152/7/3 161/7/3
f 163/5/3 161/5/3 160/5/3
f 163/1/3 162/1/3 161/1/3
f 164/2/3 153/2/3 162/2/3
f 164/1/3 162/1/3 163/1/3
f 165/2/3 153/2/3 164/2/3
f 166/5/3 163/5/3 160/5/3
f 167/3/3 164/3/3 163/3/3
f 167/5/3 163/5/3 166/5/3
f 168/3/3 164/3/3 167/3/3
f 171/4/3 170/4/3 169/4/3
f 172/4/3 170/4/3 171/4/3
f 175/7/3 174/7/3 173/7/3
f 176/7/3 174/7/3 175/7/3
f 177/7/3 175/7/3 173/7/3
f 178/7/3 175/7/3 177/7/3
f 181/4/3 180/4/3 179/4/3
f 182/4/3 180/4/3 181/4/3
f 185/7/3 184/7/3 183/7/3
f 186/7/3 184/7/3 185/7/3
f 189/7/3 188/7/3 187/7/3
f 190/7/3 188/7/3 189/7/3
f 191/7/4 192/7/4 193/7/4
f 193/7/4 192/7/4 194/7/4
f 195/7/4 196/7/4 197/7/4
f 197/7/4 196/7/4 198/7/4
f 199/4/4 200/4/4 201/4/4
f 201/4/4 200/4/4 202/4/4
f 203/7/4 204/7/4 205/7/4
f 205/7/4 204/7/4 206/7/4
f 203/7/4 205/7/4 207/7/4
f 207/7/4 205/7/4 208/7/4
f 209/4/4 210/4/4 211/4/4
f 211/4/4 210/4/4 212/4/4
f 213/5/4 214/5/4 218/5/4
f 214/1/4 215/1/4 219/1/4
f 218/5/4 214/5/4 219/5/4
f 215/2/4 216/2/4 220/2/4
f 219/1/4 215/1/4 220/1/4
f 220/2/4 216/2/4 221/2/4
f 218/7/4 219/7/4 223/7/4
f 217/7/4 218/7/4 223/7/4
f 219/7/4 220/7/4 223/7/4
f 223/7/4 220/7/4 224/7/4
f 221/2/4 222/2/4 225/2/4
f 220/2/4 221/2/4 225/2/4
f 225/2/4 222/2/4 226/2/4
f 223/4/4 224/4/4 227/4/4
f 217/7/4 223/7/4 227/7/4
f 224/7/4 220/7/4 228/7/4
f 227/4/4 224/4/4 228/4/4
f 217/7/4 227/7/4 229/7/4
f 227/7/4 228/7/4 229/7/4
f 229/7/4 228/7/4 230/7/4
f 228/7/4 220/7/4 231/7/4
f 230/7/4 228/7/4 231/7/4
f 220/2/4 225/2/4 232/2/4
f 231/7/4 220/7/4 232/7/4
f 232/2/4 225/2/4 233/2/4
f 225/7/4 226/7/4 233/7/4
f 226/2/4 222/2/4 234/2/4
f 233/7/4 226/7/4 234/7/4
f 232/2/4 233/2/4 235/2/4
f 233/2/4 234/2/4 235/2/4
f 234/2/4 222/2/4 236/2/4
f 235/2/4 234/2/4 236/2/4
f 232/2/4 235/2/4 237/2/4
f 235/7/4 236/7/4 237/7/4
f 236/2/4 222/2/4 238/2/4
f 237/7/4 236/7/4 238/7/4
f 230/5/4 231/5/4 240/5/4
f 231/1/4 232/1/4 241/1/4
f 240/5/4 231/5/4 241/5/4
f 232/2/4 237/2/4 242/2/4
f 241/1/4 232/1/4 242/1/4
f 237/2/4 238/2/4 242/2/4
f 242/2/4 238/2/4 243/2/4
f 238/2/4 222/2/4 244/2/4
f 243/2/4 238/2/4 244/2/4
f 239/7/4 240/7/4 245/7/4
f 240/7/4 241/7/4 245/7/4
f 241/7/4 242/7/4 245/7/4
f 245/7/4 242/7/4 246/7/4
f 239/7/4 245/7/4 247/7/4
f 245/4/4 246/4/4 247/4/4
f 246/7/4 242/7/4 248/7/4
f 247/4/4 246/4/4 248/4/4
f 239/7/4 247/7/4 249/7/4
f 247/7/4 248/7/4 249/7/4
f 249/7/4 248/7/4 250/7/4
f 248/7/4 242/7/4 251/7/4
f 250/7/4 248/7/4 251/7/4
f 242/2/4 243/2/4 252/2/4
f 251/7/4 242/7/4 252/7/4
f 250/5/4 251/5/4 253/5/4
f 251/1/4 252/1/4 253/1/4
f 252/2/4 243/2/4 254/2/4
f 253/1/4 252/1/4 254/1/4
f 254/2/4 243/2/4 255/2/4
f 250/5/4 253/5/4 256/5/4
f 253/3/4 254/3/4 257/3/4
f 256/5/4 253/5/4 257/5/4
f 257/3/4 254/3/4 258/3/4
f 263/7/5 260/7/5 259/7/5
f 264/7/5 260/7/5 263/7/5
f 265/7/5 262/7/5 261/7/5
f 266/7/5 262/7/5 265/7/5
f 271/7/5 268/7/5 267/7/5
f 272/7/5 268/7/5 271/7/5
f 273/7/5 270/7/5 269/7/5
f 274/7/5 270/7/5 273/7/5
f 281/5/5 276/5/5 275/5/5
f 282/5/5 276/5/5 281/5/5
f 283/5/5 276/5/5 282/5/5
f 284/5/5 278/5/5 277/5/5
f 285/5/5 278/5/5 284/5/5
f 286/5/5 280/5/5 279/5/5
f 287/5/5 280/5/5 286/5/5
f 289/4/5 282/4/5 281/4/5
f 290/2/5 283/2/5 282/2/5
f 290/4/5 282/4/5 289/4/5
f 291/7/5 289/7/5 288/7/5
f 292/5/5 290/5/5 289/5/5
f 292/7/5 289/7/5 291/7/5
f 293/5/5 290/5/5 292/5/5
f 294/2/5 283/2/5 290/2/5
f 294/5/5 290/5/5 293/5/5
f 295/4/5 294/4/5 293/4/5
f 296/2/5 283/2/5 294/2/5
f 296/4/5 294/4/5 295/4/5
f 297/7/5 284/7/5 283/7/5
f 297/2/5 283/2/5 296/2/5
f 298/2/5 285/2/5 284/2/5
f 298/7/5 284/7/5 297/7/5
f 299/7/5 286/7/5 285/7/5
f 299/2/5 285/2/5 298/2/5
f 300/2/5 287/2/5 286/2/5
f 300/7/5 286/7/5 299/7/5
f 301/5/5 280/5/5 287/5/5
f 301/2/5 287/2/5 300/2/5
f 302/5/5 297/5/5 296/5/5
f 302/5/5 296/5/5 295/5/5
f 303/5/5 297/5/5 302/5/5
f 304/5/5 299/5/5 298/5/5
f 305/5/5 299/5/5 304/5/5
f 306/5/5 301/5/5 300/5/5
f 307/5/5 280/5/5 301/5/5
f 307/5/5 301/5/5 306/5/5
f 308/7/6 309/7/6 310/7/6
f 310/7/6 309/7/6 311/7/6
f 312/3/6 313/3/6 314/3/6
f 314/3/6 313/3/6 315/3/6
f 316/7/6 317/7/6 320/7/6
f 320/7/6 317/7/6 321/7/6
f 318/3/6 319/3/6 322/3/6
f 322/3/6 319/3/6 323/3/6
f 324/3/6 325/3/6 326/3/6
f 326/3/6 325/3/6 327/3/6
f 328/4/6 329/4/6 330/4/6
f 330/4/6 329/4/6 331/4/6
f 332/4/6 333/4/6 334/4/6
f 334/4/6 333/4/6 335/4/6
f 336/2/6 337/2/6 340/2/6
f 340/2/6 337/2/6 341/2/6
f 341/2/6 337/2/6 342/2/6
f 338/2/6 339/2/6 343/2/6
f 343/2/6 339/2/6 344/2/6
f 344/2/6 339/2/6 345/2/6
f 340/7/6 341/7/6 346/7/6
f 341/6/6 342/6/6 347/6/6
f 346/7/6 341/7/6 347/7/6
f 347/6/6 342/6/6 348/6/6
f 343/6/6 344/6/6 349/6/6
f 344/7/6 345/7/6 350/7/6
f 349/6/6 344/6/6 350/6/6
f 350/7/6 345/7/6 351/7/6
f 347/2/6 348/2/6 352/2/6
f 346/2/6 347/2/6 352/2/6
f 352/2/6 348/2/6 353/2/6
f 350/2/6 351/2/6 354/2/6
f 349/2/6 350/2/6 354/2/6
f 354/2/6 351/2/6 355/2/6
f 356/2/6 357/2/6 358/2/6
f 358/2/6 357/2/6 359/2/6
f 358/6/6 359/6/6 360/6/6
f 360/6/6 359/6/6 361/6/6
f 360/2/6 361/2/6 362/2/6
f 362/2/6 361/2/6 363/2/6
