# MagicaVoxel @ Ephtracy

# group
o 

# material
mtllib bookcase.mtl
usemtl palette

# normals
vn -1 0 0
vn 1 0 0
vn 0 0 1
vn 0 0 -1
vn 0 -1 0
vn 0 1 0

# texcoords
vt 0.00195313 0.5
vt 0.154297 0.5
vt 0.162109 0.5
vt 0.279297 0.5
vt 0.423828 0.5
vt 0.470703 0.5
vt 0.681641 0.5
vt 0.798828 0.5
vt 0.958984 0.5
vt 0.966797 0.5
vt 0.982422 0.5

# verts
v 0.7 0 0.4
v 0.7 0 -0.8
v 0.7 0.1 0.3
v 0.7 0.1 -0.7
v 0.7 0.4 0.3
v 0.7 0.4 -0.7
v 0.7 0.5 0.3
v 0.7 0.5 -0.7
v 0.7 0.8 0.3
v 0.7 0.8 -0.7
v 0.7 0.9 0.3
v 0.7 0.9 -0.7
v 0.7 1.2 0.3
v 0.7 1.2 -0.7
v 0.7 1.3 0.4
v 0.7 1.3 -0.8
v 0.8 0.1 0.3
v 0.8 0.1 0.2
v 0.8 0.1 0.1
v 0.8 0.1 0
v 0.8 0.4 0.3
v 0.8 0.4 0.2
v 0.8 0.4 0.1
v 0.8 0.4 0
v 0.8 0.5 -0.1
v 0.8 0.5 -0.2
v 0.8 0.5 -0.3
v 0.8 0.8 -0.1
v 0.8 0.8 -0.2
v 0.8 0.8 -0.3
v 0.8 0.9 -0.2
v 0.8 0.9 -0.3
v 0.8 0.9 -0.4
v 0.8 0.9 -0.5
v 0.8 0.9 -0.6
v 0.8 0.9 -0.7
v 0.8 1.2 -0.2
v 0.8 1.2 -0.3
v 0.8 1.2 -0.4
v 0.8 1.2 -0.5
v 0.8 1.2 -0.6
v 0.8 1.2 -0.7
v 0.9 0.9 0.3
v 0.9 0.9 0
v 0.9 1 0.3
v 0.9 1 0
v 1 0.1 0.2
v 1 0.1 -0.7
v 1 0.3 0.3
v 1 0.3 0.2
v 1 0.3 -0.7
v 1 0.4 0.3
v 1 0.4 -0.7
v 1 0.5 0.3
v 1 0.5 -0.1
v 1 0.5 -0.3
v 1 0.5 -0.7
v 1 0.7 -0.1
v 1 0.7 -0.2
v 1 0.7 -0.3
v 1 0.8 0.3
v 1 0.8 -0.7
v 1 0.9 0
v 1 0.9 -0.2
v 1 0.9 -0.4
v 1 0.9 -0.5
v 1 1 0.3
v 1 1 0
v 1 1 -0.2
v 1 1 -0.3
v 1 1 -0.4
v 1 1.1 -0.4
v 1 1.1 -0.5
v 1 1.2 0.3
v 1 1.2 -0.2
v 1 1.2 -0.3
v 1 1.2 -0.4
v 0.9 0.1 0.2
v 0.9 0.1 0.1
v 0.9 0.1 0
v 0.9 0.3 0.3
v 0.9 0.3 0.2
v 0.9 0.4 0.3
v 0.9 0.4 0.2
v 0.9 0.4 0.1
v 0.9 0.4 0
v 0.9 0.7 -0.1
v 0.9 0.7 -0.2
v 0.9 0.7 -0.3
v 0.9 0.8 -0.1
v 0.9 0.8 -0.2
v 0.9 0.8 -0.3
v 0.9 0.9 -0.4
v 0.9 0.9 -0.5
v 0.9 1 -0.3
v 0.9 1 -0.4
v 0.9 1.1 -0.4
v 0.9 1.1 -0.5
v 0.9 1.2 -0.3
v 0.9 1.2 -0.4
v 1.2 0 0.4
v 1.2 0 -0.8
v 1.2 1.3 0.4
v 1.2 1.3 -0.8
v 0.7 0 0.4
v 0.7 1.3 0.4
v 1.2 0 0.4
v 1.2 1.3 0.4
v 0.8 0.5 -0.1
v 0.8 0.8 -0.1
v 0.9 0.7 -0.1
v 0.9 0.8 -0.1
v 1 0.5 -0.1
v 1 0.7 -0.1
v 0.8 0.9 -0.2
v 0.8 1.2 -0.2
v 0.9 0.9 -0.2
v 0.9 1 -0.2
v 1 0.9 -0.2
v 1 1 -0.2
v 1 1.2 -0.2
v 0.9 1.1 -0.4
v 0.9 1.2 -0.4
v 1 1.1 -0.4
v 1 1.2 -0.4
v 0.9 0.9 -0.5
v 0.9 1.1 -0.5
v 1 0.9 -0.5
v 1 1.1 -0.5
v 0.7 0.1 -0.7
v 0.7 0.4 -0.7
v 0.7 0.5 -0.7
v 0.7 0.8 -0.7
v 0.7 0.9 -0.7
v 0.7 1.2 -0.7
v 0.8 0.9 -0.7
v 0.8 1.2 -0.7
v 1 0.1 -0.7
v 1 0.3 -0.7
v 1 0.4 -0.7
v 1 0.5 -0.7
v 1 0.8 -0.7
v 0.7 0.1 0.3
v 0.7 0.4 0.3
v 0.7 0.5 0.3
v 0.7 0.8 0.3
v 0.7 0.9 0.3
v 0.7 1.2 0.3
v 0.8 0.1 0.3
v 0.8 0.4 0.3
v 0.9 0.3 0.3
v 0.9 0.4 0.3
v 0.9 0.9 0.3
v 0.9 1 0.3
v 1 0.3 0.3
v 1 0.4 0.3
v 1 0.5 0.3
v 1 0.8 0.3
v 1 1 0.3
v 1 1.2 0.3
v 0.9 0.1 0.2
v 0.9 0.3 0.2
v 1 0.1 0.2
v 1 0.3 0.2
v 0.8 0.1 0
v 0.8 0.4 0
v 0.9 0.1 0
v 0.9 0.4 0
v 0.9 0.9 0
v 0.9 1 0
v 1 0.9 0
v 1 1 0
v 0.8 0.5 -0.3
v 0.8 0.8 -0.3
v 0.9 0.7 -0.3
v 0.9 0.8 -0.3
v 0.9 1 -0.3
v 0.9 1.2 -0.3
v 1 0.5 -0.3
v 1 0.7 -0.3
v 1 1 -0.3
v 1 1.2 -0.3
v 0.9 0.9 -0.4
v 0.9 1 -0.4
v 1 0.9 -0.4
v 1 1 -0.4
v 0.7 0 -0.8
v 0.7 1.3 -0.8
v 1.2 0 -0.8
v 1.2 1.3 -0.8
v 0.7 0 0.4
v 1.2 0 0.4
v 0.7 0 -0.8
v 1.2 0 -0.8
v 0.7 0.4 0.3
v 0.8 0.4 0.3
v 0.9 0.4 0.3
v 1 0.4 0.3
v 0.8 0.4 0.2
v 0.9 0.4 0.2
v 0.8 0.4 0.1
v 0.9 0.4 0.1
v 0.8 0.4 0
v 0.9 0.4 0
v 0.7 0.4 -0.7
v 1 0.4 -0.7
v 0.7 0.8 0.3
v 1 0.8 0.3
v 0.8 0.8 -0.1
v 0.9 0.8 -0.1
v 0.8 0.8 -0.2
v 0.9 0.8 -0.2
v 0.8 0.8 -0.3
v 0.9 0.8 -0.3
v 0.7 0.8 -0.7
v 1 0.8 -0.7
v 0.9 1.1 -0.4
v 1 1.1 -0.4
v 0.9 1.1 -0.5
v 1 1.1 -0.5
v 0.7 1.2 0.3
v 1 1.2 0.3
v 0.8 1.2 -0.2
v 1 1.2 -0.2
v 0.8 1.2 -0.3
v 0.9 1.2 -0.3
v 1 1.2 -0.3
v 0.8 1.2 -0.4
v 0.9 1.2 -0.4
v 1 1.2 -0.4
v 0.8 1.2 -0.5
v 0.8 1.2 -0.6
v 0.7 1.2 -0.7
v 0.8 1.2 -0.7
v 0.7 0.1 0.3
v 0.8 0.1 0.3
v 0.8 0.1 0.2
v 0.9 0.1 0.2
v 1 0.1 0.2
v 0.8 0.1 0.1
v 0.9 0.1 0.1
v 0.8 0.1 0
v 0.9 0.1 0
v 0.7 0.1 -0.7
v 1 0.1 -0.7
v 0.9 0.3 0.3
v 1 0.3 0.3
v 0.9 0.3 0.2
v 1 0.3 0.2
v 0.7 0.5 0.3
v 1 0.5 0.3
v 0.8 0.5 -0.1
v 1 0.5 -0.1
v 0.8 0.5 -0.2
v 0.8 0.5 -0.3
v 1 0.5 -0.3
v 0.7 0.5 -0.7
v 1 0.5 -0.7
v 0.9 0.7 -0.1
v 1 0.7 -0.1
v 0.9 0.7 -0.2
v 1 0.7 -0.2
v 0.9 0.7 -0.3
v 1 0.7 -0.3
v 0.7 0.9 0.3
v 0.9 0.9 0.3
v 0.9 0.9 0
v 1 0.9 0
v 0.8 0.9 -0.2
v 0.9 0.9 -0.2
v 1 0.9 -0.2
v 0.8 0.9 -0.3
v 0.8 0.9 -0.4
v 0.9 0.9 -0.4
v 1 0.9 -0.4
v 0.8 0.9 -0.5
v 0.9 0.9 -0.5
v 1 0.9 -0.5
v 0.8 0.9 -0.6
v 0.7 0.9 -0.7
v 0.8 0.9 -0.7
v 0.9 1 0.3
v 1 1 0.3
v 0.9 1 0
v 1 1 0
v 0.9 1 -0.3
v 1 1 -0.3
v 0.9 1 -0.4
v 1 1 -0.4
v 0.7 1.3 0.4
v 1.2 1.3 0.4
v 0.7 1.3 -0.8
v 1.2 1.3 -0.8

# faces
f 3/10/1 2/10/1 1/10/1
f 4/10/1 2/10/1 3/10/1
f 5/10/1 3/10/1 1/10/1
f 6/10/1 2/10/1 4/10/1
f 7/10/1 5/10/1 1/10/1
f 7/10/1 6/10/1 5/10/1
f 8/10/1 2/10/1 6/10/1
f 8/10/1 6/10/1 7/10/1
f 9/10/1 7/10/1 1/10/1
f 10/10/1 2/10/1 8/10/1
f 11/10/1 9/10/1 1/10/1
f 11/10/1 10/10/1 9/10/1
f 12/10/1 2/10/1 10/10/1
f 12/10/1 10/10/1 11/10/1
f 13/10/1 11/10/1 1/10/1
f 14/10/1 2/10/1 12/10/1
f 15/10/1 13/10/1 1/10/1
f 15/10/1 14/10/1 13/10/1
f 16/10/1 2/10/1 14/10/1
f 16/10/1 14/10/1 15/10/1
f 21/5/1 18/5/1 17/5/1
f 22/2/1 19/2/1 18/2/1
f 22/5/1 18/5/1 21/5/1
f 23/1/1 20/1/1 19/1/1
f 23/2/1 19/2/1 22/2/1
f 24/1/1 20/1/1 23/1/1
f 28/6/1 26/6/1 25/6/1
f 29/1/1 27/1/1 26/1/1
f 29/6/1 26/6/1 28/6/1
f 30/1/1 27/1/1 29/1/1
f 37/1/1 32/1/1 31/1/1
f 38/5/1 33/5/1 32/5/1
f 38/1/1 32/1/1 37/1/1
f 39/3/1 34/3/1 33/3/1
f 39/5/1 33/5/1 38/5/1
f 40/4/1 35/4/1 34/4/1
f 40/3/1 34/3/1 39/3/1
f 41/8/1 36/8/1 35/8/1
f 41/4/1 35/4/1 40/4/1
f 42/8/1 36/8/1 41/8/1
f 45/7/1 44/7/1 43/7/1
f 46/7/1 44/7/1 45/7/1
f 50/11/1 48/11/1 47/11/1
f 51/11/1 48/11/1 50/11/1
f 52/10/1 50/10/1 49/10/1
f 52/10/1 51/10/1 50/10/1
f 53/10/1 51/10/1 52/10/1
f 58/11/1 55/11/1 54/11/1
f 60/11/1 57/11/1 56/11/1
f 61/11/1 59/11/1 58/11/1
f 61/11/1 60/11/1 59/11/1
f 61/11/1 58/11/1 54/11/1
f 62/11/1 57/11/1 60/11/1
f 62/11/1 60/11/1 61/11/1
f 68/11/1 64/11/1 63/11/1
f 69/11/1 64/11/1 68/11/1
f 71/11/1 66/11/1 65/11/1
f 72/11/1 66/11/1 71/11/1
f 72/11/1 71/11/1 70/11/1
f 73/11/1 66/11/1 72/11/1
f 74/11/1 69/11/1 68/11/1
f 74/11/1 68/11/1 67/11/1
f 75/11/1 69/11/1 74/11/1
f 76/11/1 72/11/1 70/11/1
f 77/11/1 72/11/1 76/11/1
f 78/2/2 79/2/2 82/2/2
f 81/5/2 82/5/2 83/5/2
f 82/2/2 79/2/2 84/2/2
f 83/5/2 82/5/2 84/5/2
f 79/1/2 80/1/2 85/1/2
f 84/2/2 79/2/2 85/2/2
f 85/1/2 80/1/2 86/1/2
f 87/6/2 88/6/2 90/6/2
f 88/1/2 89/1/2 91/1/2
f 90/6/2 88/6/2 91/6/2
f 91/1/2 89/1/2 92/1/2
f 93/3/2 94/3/2 96/3/2
f 96/3/2 94/3/2 97/3/2
f 95/5/2 96/5/2 97/5/2
f 97/3/2 94/3/2 98/3/2
f 95/5/2 97/5/2 99/5/2
f 99/5/2 97/5/2 100/5/2
f 101/10/2 102/10/2 103/10/2
f 103/10/2 102/10/2 104/10/2
f 107/10/3 106/10/3 105/10/3
f 108/10/3 106/10/3 107/10/3
f 111/6/3 110/6/3 109/6/3
f 112/6/3 110/6/3 111/6/3
f 113/6/3 111/6/3 109/6/3
f 114/6/3 111/6/3 113/6/3
f 117/1/3 116/1/3 115/1/3
f 118/1/3 116/1/3 117/1/3
f 119/9/3 118/9/3 117/9/3
f 120/1/3 116/1/3 118/1/3
f 120/9/3 118/9/3 119/9/3
f 121/1/3 116/1/3 120/1/3
f 124/3/3 123/3/3 122/3/3
f 125/3/3 123/3/3 124/3/3
f 128/4/3 127/4/3 126/4/3
f 129/4/3 127/4/3 128/4/3
f 136/10/3 135/10/3 134/10/3
f 137/10/3 135/10/3 136/10/3
f 138/10/3 131/10/3 130/10/3
f 139/10/3 131/10/3 138/10/3
f 140/10/3 131/10/3 139/10/3
f 141/10/3 133/10/3 132/10/3
f 142/10/3 133/10/3 141/10/3
f 143/10/4 144/10/4 149/10/4
f 149/10/4 144/10/4 150/10/4
f 147/10/4 148/10/4 153/10/4
f 153/10/4 148/10/4 154/10/4
f 151/10/4 152/10/4 155/10/4
f 155/10/4 152/10/4 156/10/4
f 145/10/4 146/10/4 157/10/4
f 157/10/4 146/10/4 158/10/4
f 154/10/4 148/10/4 159/10/4
f 159/10/4 148/10/4 160/10/4
f 161/5/4 162/5/4 163/5/4
f 163/5/4 162/5/4 164/5/4
f 165/1/4 166/1/4 167/1/4
f 167/1/4 166/1/4 168/1/4
f 169/7/4 170/7/4 171/7/4
f 171/7/4 170/7/4 172/7/4
f 173/1/4 174/1/4 175/1/4
f 175/1/4 174/1/4 176/1/4
f 173/1/4 175/1/4 179/1/4
f 179/1/4 175/1/4 180/1/4
f 177/1/4 178/1/4 181/1/4
f 181/1/4 178/1/4 182/1/4
f 183/5/4 184/5/4 185/5/4
f 185/5/4 184/5/4 186/5/4
f 187/10/4 188/10/4 189/10/4
f 189/10/4 188/10/4 190/10/4
f 193/10/5 192/10/5 191/10/5
f 194/10/5 192/10/5 193/10/5
f 199/10/5 196/10/5 195/10/5
f 200/10/5 198/10/5 197/10/5
f 201/10/5 199/10/5 195/10/5
f 202/10/5 198/10/5 200/10/5
f 203/10/5 201/10/5 195/10/5
f 204/10/5 198/10/5 202/10/5
f 205/10/5 203/10/5 195/10/5
f 205/10/5 204/10/5 203/10/5
f 206/10/5 198/10/5 204/10/5
f 206/10/5 204/10/5 205/10/5
f 209/10/5 208/10/5 207/10/5
f 210/10/5 208/10/5 209/10/5
f 211/10/5 209/10/5 207/10/5
f 212/10/5 208/10/5 210/10/5
f 213/10/5 211/10/5 207/10/5
f 214/10/5 208/10/5 212/10/5
f 215/10/5 213/10/5 207/10/5
f 215/10/5 214/10/5 213/10/5
f 216/10/5 208/10/5 214/10/5
f 216/10/5 214/10/5 215/10/5
f 219/3/5 218/3/5 217/3/5
f 220/3/5 218/3/5 219/3/5
f 223/10/5 222/10/5 221/10/5
f 224/10/5 222/10/5 223/10/5
f 225/10/5 223/10/5 221/10/5
f 228/10/5 225/10/5 221/10/5
f 229/10/5 227/10/5 226/10/5
f 230/10/5 227/10/5 229/10/5
f 231/10/5 228/10/5 221/10/5
f 232/10/5 231/10/5 221/10/5
f 233/10/5 232/10/5 221/10/5
f 234/10/5 232/10/5 233/10/5
f 235/10/6 236/10/6 237/10/6
f 235/10/6 237/10/6 240/10/6
f 238/10/6 239/10/6 241/10/6
f 235/10/6 240/10/6 242/10/6
f 241/10/6 239/10/6 243/10/6
f 235/10/6 242/10/6 244/10/6
f 242/10/6 243/10/6 244/10/6
f 243/10/6 239/10/6 245/10/6
f 244/10/6 243/10/6 245/10/6
f 246/5/6 247/5/6 248/5/6
f 248/5/6 247/5/6 249/5/6
f 250/10/6 251/10/6 252/10/6
f 252/10/6 251/10/6 253/10/6
f 250/10/6 252/10/6 254/10/6
f 250/10/6 254/10/6 255/10/6
f 250/10/6 255/10/6 257/10/6
f 255/10/6 256/10/6 257/10/6
f 257/10/6 256/10/6 258/10/6
f 259/6/6 260/6/6 261/6/6
f 261/6/6 260/6/6 262/6/6
f 261/1/6 262/1/6 263/1/6
f 263/1/6 262/1/6 264/1/6
f 265/10/6 266/10/6 267/10/6
f 265/10/6 267/10/6 269/10/6
f 267/10/6 268/10/6 269/10/6
f 269/10/6 268/10/6 270/10/6
f 270/10/6 268/10/6 271/10/6
f 265/10/6 269/10/6 272/10/6
f 265/10/6 272/10/6 273/10/6
f 265/10/6 273/10/6 276/10/6
f 274/10/6 275/10/6 277/10/6
f 277/10/6 275/10/6 278/10/6
f 265/10/6 276/10/6 279/10/6
f 265/10/6 279/10/6 280/10/6
f 280/10/6 279/10/6 281/10/6
f 282/7/6 283/7/6 284/7/6
f 284/7/6 283/7/6 285/7/6
f 286/5/6 287/5/6 288/5/6
f 288/5/6 287/5/6 289/5/6
f 290/10/6 291/10/6 292/10/6
f 292/10/6 291/10/6 293/10/6
