# MagicaVoxel @ Ephtracy

# group
o 

# material
mtllib bedside table.mtl
usemtl palette

# normals
vn -1 0 0
vn 1 0 0
vn 0 0 1
vn 0 0 -1
vn 0 -1 0
vn 0 1 0

# texcoords
vt 0.865234 0.5
vt 0.869141 0.5

# verts
v -0.0999999 0 1
v -0.0999999 0 0.3
v -0.0999999 0.1 1
v -0.0999999 0.1 0.3
v -0.0999999 0.4 1
v -0.0999999 0.4 0.3
v -0.0999999 0.5 1
v -0.0999999 0.5 0.3
v -0.0999999 0.9 1
v -0.0999999 0.9 0.3
v 0.2 0.3 0.3
v 0.2 0.3 0.2
v 0.2 0.4 0.3
v 0.2 0.4 0.2
v 0.2 0.8 0.3
v 0.2 0.8 0.2
v 0.2 0.9 0.3
v 0.2 0.9 0.2
v 0.3 0.3 0.3
v 0.3 0.3 0.2
v 0.3 0.4 0.3
v 0.3 0.4 0.2
v 0.3 0.8 0.3
v 0.3 0.8 0.2
v 0.3 0.9 0.3
v 0.3 0.9 0.2
v 0.6 0 1
v 0.6 0 0.3
v 0.6 0.1 1
v 0.6 0.1 0.3
v 0.6 0.4 1
v 0.6 0.4 0.3
v 0.6 0.5 1
v 0.6 0.5 0.3
v 0.6 0.9 1
v 0.6 0.9 0.3
v -0.0999999 0 1
v -0.0999999 0.1 1
v -0.0999999 0.4 1
v -0.0999999 0.5 1
v -0.0999999 0.9 1
v 0.6 0 1
v 0.6 0.1 1
v 0.6 0.4 1
v 0.6 0.5 1
v 0.6 0.9 1
v -0.0999999 0 0.3
v -0.0999999 0.1 0.3
v -0.0999999 0.4 0.3
v -0.0999999 0.5 0.3
v -0.0999999 0.9 0.3
v 0.2 0.3 0.3
v 0.2 0.4 0.3
v 0.2 0.8 0.3
v 0.2 0.9 0.3
v 0.3 0.3 0.3
v 0.3 0.4 0.3
v 0.3 0.8 0.3
v 0.3 0.9 0.3
v 0.6 0 0.3
v 0.6 0.1 0.3
v 0.6 0.4 0.3
v 0.6 0.5 0.3
v 0.6 0.9 0.3
v 0.2 0.3 0.2
v 0.2 0.4 0.2
v 0.2 0.8 0.2
v 0.2 0.9 0.2
v 0.3 0.3 0.2
v 0.3 0.4 0.2
v 0.3 0.8 0.2
v 0.3 0.9 0.2
v -0.0999999 0 1
v 0.6 0 1
v 7.45058e-008 0 0.8
v 0.5 0 0.8
v 7.45058e-008 0 0.4
v 0.5 0 0.4
v -0.0999999 0 0.3
v 0.6 0 0.3
v 0.2 0.3 0.3
v 0.3 0.3 0.3
v 0.2 0.3 0.2
v 0.3 0.3 0.2
v 0.2 0.8 0.3
v 0.3 0.8 0.3
v 0.2 0.8 0.2
v 0.3 0.8 0.2
v 0.2 0.4 0.3
v 0.3 0.4 0.3
v 0.2 0.4 0.2
v 0.3 0.4 0.2
v -0.0999999 0.9 1
v 0.6 0.9 1
v -0.0999999 0.9 0.3
v 0.2 0.9 0.3
v 0.3 0.9 0.3
v 0.6 0.9 0.3
v 0.2 0.9 0.2
v 0.3 0.9 0.2

# faces
f 3/2/1 2/2/1 1/2/1
f 4/2/1 2/2/1 3/2/1
f 5/1/1 4/1/1 3/1/1
f 6/1/1 4/1/1 5/1/1
f 7/2/1 6/2/1 5/2/1
f 8/2/1 6/2/1 7/2/1
f 9/1/1 8/1/1 7/1/1
f 10/1/1 8/1/1 9/1/1
f 13/2/1 12/2/1 11/2/1
f 14/2/1 12/2/1 13/2/1
f 17/2/1 16/2/1 15/2/1
f 18/2/1 16/2/1 17/2/1
f 19/2/2 20/2/2 21/2/2
f 21/2/2 20/2/2 22/2/2
f 23/2/2 24/2/2 25/2/2
f 25/2/2 24/2/2 26/2/2
f 27/2/2 28/2/2 29/2/2
f 29/2/2 28/2/2 30/2/2
f 29/1/2 30/1/2 31/1/2
f 31/1/2 30/1/2 32/1/2
f 31/2/2 32/2/2 33/2/2
f 33/2/2 32/2/2 34/2/2
f 33/1/2 34/1/2 35/1/2
f 35/1/2 34/1/2 36/1/2
f 42/2/3 38/2/3 37/2/3
f 43/1/3 39/1/3 38/1/3
f 43/2/3 38/2/3 42/2/3
f 44/2/3 40/2/3 39/2/3
f 44/1/3 39/1/3 43/1/3
f 45/1/3 41/1/3 40/1/3
f 45/2/3 40/2/3 44/2/3
f 46/1/3 41/1/3 45/1/3
f 48/1/4 49/1/4 52/1/4
f 49/2/4 50/2/4 53/2/4
f 52/1/4 49/1/4 53/1/4
f 50/1/4 51/1/4 54/1/4
f 54/1/4 51/1/4 55/1/4
f 48/1/4 52/1/4 56/1/4
f 53/2/4 50/2/4 57/2/4
f 50/1/4 54/1/4 58/1/4
f 47/2/4 48/2/4 60/2/4
f 48/1/4 56/1/4 61/1/4
f 60/2/4 48/2/4 61/2/4
f 56/1/4 57/1/4 61/1/4
f 57/2/4 50/2/4 62/2/4
f 61/1/4 57/1/4 62/1/4
f 58/1/4 59/1/4 63/1/4
f 62/2/4 50/2/4 63/2/4
f 50/1/4 58/1/4 63/1/4
f 63/1/4 59/1/4 64/1/4
f 65/2/4 66/2/4 69/2/4
f 69/2/4 66/2/4 70/2/4
f 67/2/4 68/2/4 71/2/4
f 71/2/4 68/2/4 72/2/4
f 75/2/5 74/2/5 73/2/5
f 76/2/5 74/2/5 75/2/5
f 77/2/5 75/2/5 73/2/5
f 77/1/5 76/1/5 75/1/5
f 78/2/5 74/2/5 76/2/5
f 78/1/5 76/1/5 77/1/5
f 79/2/5 77/2/5 73/2/5
f 79/2/5 78/2/5 77/2/5
f 80/2/5 74/2/5 78/2/5
f 80/2/5 78/2/5 79/2/5
f 83/2/5 82/2/5 81/2/5
f 84/2/5 82/2/5 83/2/5
f 87/2/5 86/2/5 85/2/5
f 88/2/5 86/2/5 87/2/5
f 89/2/6 90/2/6 91/2/6
f 91/2/6 90/2/6 92/2/6
f 93/1/6 94/1/6 95/1/6
f 95/1/6 94/1/6 96/1/6
f 96/1/6 94/1/6 97/1/6
f 97/1/6 94/1/6 98/1/6
f 96/2/6 97/2/6 99/2/6
f 99/2/6 97/2/6 100/2/6
