# MagicaVoxel @ Ephtracy

# group
o 

# material
mtllib chair.mtl
usemtl palette

# normals
vn -1 0 0
vn 1 0 0
vn 0 0 1
vn 0 0 -1
vn 0 -1 0
vn 0 1 0

# texcoords
vt 0.865234 0.5
vt 0.869141 0.5

# verts
v -0.6 0 -0.3
v -0.6 0 -0.4
v -0.6 0 -0.8
v -0.6 0 -0.9
v -0.6 0.5 -0.4
v -0.6 0.5 -0.8
v -0.6 0.5 -0.9
v -0.6 0.6 -0.4
v -0.6 0.6 -0.8
v -0.6 0.6 -0.9
v -0.6 0.7 -0.4
v -0.6 0.7 -0.8
v -0.6 0.8 -0.4
v -0.6 0.8 -0.9
v -0.6 1.3 -0.3
v -0.6 1.3 -0.4
v 5.96046e-008 0 -0.3
v 5.96046e-008 0 -0.4
v 5.96046e-008 0 -0.8
v 5.96046e-008 0 -0.9
v 5.96046e-008 0.5 -0.3
v 5.96046e-008 0.5 -0.4
v 5.96046e-008 0.5 -0.8
v 5.96046e-008 0.5 -0.9
v 5.96046e-008 0.6 -0.8
v 5.96046e-008 0.6 -0.9
v 5.96046e-008 0.7 -0.4
v 5.96046e-008 0.7 -0.8
v 5.96046e-008 0.8 -0.4
v 5.96046e-008 0.8 -0.9
v -0.5 0 -0.3
v -0.5 0 -0.4
v -0.5 0 -0.8
v -0.5 0 -0.9
v -0.5 0.5 -0.3
v -0.5 0.5 -0.4
v -0.5 0.5 -0.8
v -0.5 0.5 -0.9
v -0.5 0.6 -0.8
v -0.5 0.6 -0.9
v -0.5 0.7 -0.4
v -0.5 0.7 -0.8
v -0.5 0.8 -0.4
v -0.5 0.8 -0.9
v 0.1 0 -0.3
v 0.1 0 -0.4
v 0.1 0 -0.8
v 0.1 0 -0.9
v 0.1 0.5 -0.4
v 0.1 0.5 -0.8
v 0.1 0.5 -0.9
v 0.1 0.6 -0.4
v 0.1 0.6 -0.8
v 0.1 0.6 -0.9
v 0.1 0.7 -0.4
v 0.1 0.7 -0.8
v 0.1 0.8 -0.4
v 0.1 0.8 -0.9
v 0.1 1.3 -0.3
v 0.1 1.3 -0.4
v -0.6 0 -0.3
v -0.6 1.3 -0.3
v -0.5 0 -0.3
v -0.5 0.5 -0.3
v -0.5 1.2 -0.3
v 5.96046e-008 0 -0.3
v 5.96046e-008 0.5 -0.3
v 5.96046e-008 1.2 -0.3
v 0.1 0 -0.3
v 0.1 1.3 -0.3
v -0.6 0 -0.8
v -0.6 0.5 -0.8
v -0.6 0.6 -0.8
v -0.6 0.7 -0.8
v -0.5 0 -0.8
v -0.5 0.5 -0.8
v -0.5 0.6 -0.8
v -0.5 0.7 -0.8
v 5.96046e-008 0 -0.8
v 5.96046e-008 0.5 -0.8
v 5.96046e-008 0.6 -0.8
v 5.96046e-008 0.7 -0.8
v 0.1 0 -0.8
v 0.1 0.5 -0.8
v 0.1 0.6 -0.8
v 0.1 0.7 -0.8
v -0.6 0 -0.4
v -0.6 0.5 -0.4
v -0.6 0.6 -0.4
v -0.6 0.7 -0.4
v -0.6 0.8 -0.4
v -0.6 1.3 -0.4
v -0.5 0 -0.4
v -0.5 0.5 -0.4
v -0.5 0.6 -0.4
v -0.5 0.7 -0.4
v -0.5 0.8 -0.4
v -0.5 1.2 -0.4
v 5.96046e-008 0 -0.4
v 5.96046e-008 0.5 -0.4
v 5.96046e-008 0.6 -0.4
v 5.96046e-008 0.7 -0.4
v 5.96046e-008 0.8 -0.4
v 5.96046e-008 1.2 -0.4
v 0.1 0 -0.4
v 0.1 0.5 -0.4
v 0.1 0.6 -0.4
v 0.1 0.7 -0.4
v 0.1 0.8 -0.4
v 0.1 1.3 -0.4
v -0.6 0 -0.9
v -0.6 0.5 -0.9
v -0.6 0.6 -0.9
v -0.6 0.8 -0.9
v -0.5 0 -0.9
v -0.5 0.5 -0.9
v -0.5 0.6 -0.9
v -0.5 0.8 -0.9
v 5.96046e-008 0 -0.9
v 5.96046e-008 0.5 -0.9
v 5.96046e-008 0.6 -0.9
v 5.96046e-008 0.8 -0.9
v 0.1 0 -0.9
v 0.1 0.5 -0.9
v 0.1 0.6 -0.9
v 0.1 0.8 -0.9
v -0.6 0 -0.3
v -0.5 0 -0.3
v 5.96046e-008 0 -0.3
v 0.1 0 -0.3
v -0.6 0 -0.4
v -0.5 0 -0.4
v 5.96046e-008 0 -0.4
v 0.1 0 -0.4
v -0.6 0 -0.8
v -0.5 0 -0.8
v 5.96046e-008 0 -0.8
v 0.1 0 -0.8
v -0.6 0 -0.9
v -0.5 0 -0.9
v 5.96046e-008 0 -0.9
v 0.1 0 -0.9
v -0.5 0.5 -0.3
v 5.96046e-008 0.5 -0.3
v -0.6 0.5 -0.4
v -0.5 0.5 -0.4
v 5.96046e-008 0.5 -0.4
v 0.1 0.5 -0.4
v -0.6 0.5 -0.8
v -0.5 0.5 -0.8
v 5.96046e-008 0.5 -0.8
v 0.1 0.5 -0.8
v -0.5 0.5 -0.9
v 5.96046e-008 0.5 -0.9
v -0.6 0.7 -0.4
v -0.5 0.7 -0.4
v 5.96046e-008 0.7 -0.4
v 0.1 0.7 -0.4
v -0.6 0.7 -0.8
v -0.5 0.7 -0.8
v 5.96046e-008 0.7 -0.8
v 0.1 0.7 -0.8
v -0.6 0.6 -0.4
v -0.5 0.6 -0.4
v 5.96046e-008 0.6 -0.4
v 0.1 0.6 -0.4
v -0.6 0.6 -0.8
v -0.5 0.6 -0.8
v 5.96046e-008 0.6 -0.8
v 0.1 0.6 -0.8
v -0.5 0.6 -0.9
v 5.96046e-008 0.6 -0.9
v -0.6 0.8 -0.4
v -0.5 0.8 -0.4
v 5.96046e-008 0.8 -0.4
v 0.1 0.8 -0.4
v -0.6 0.8 -0.9
v -0.5 0.8 -0.9
v 5.96046e-008 0.8 -0.9
v 0.1 0.8 -0.9
v -0.6 1.3 -0.3
v 0.1 1.3 -0.3
v -0.6 1.3 -0.4
v 0.1 1.3 -0.4

# faces
f 5/2/1 2/2/1 1/2/1
f 6/2/1 4/2/1 3/2/1
f 7/2/1 4/2/1 6/2/1
f 8/2/1 5/2/1 1/2/1
f 8/1/1 6/1/1 5/1/1
f 8/1/1 7/1/1 6/1/1
f 9/1/1 7/1/1 8/1/1
f 10/1/1 7/1/1 9/1/1
f 11/2/1 8/2/1 1/2/1
f 12/2/1 10/2/1 9/2/1
f 13/2/1 11/2/1 1/2/1
f 13/2/1 12/2/1 11/2/1
f 14/2/1 10/2/1 12/2/1
f 14/2/1 12/2/1 13/2/1
f 15/2/1 13/2/1 1/2/1
f 16/2/1 13/2/1 15/2/1
f 21/2/1 18/2/1 17/2/1
f 22/2/1 18/2/1 21/2/1
f 23/2/1 20/2/1 19/2/1
f 24/2/1 20/2/1 23/2/1
f 28/2/1 26/2/1 25/2/1
f 29/2/1 28/2/1 27/2/1
f 30/2/1 26/2/1 28/2/1
f 30/2/1 28/2/1 29/2/1
f 31/2/2 32/2/2 35/2/2
f 35/2/2 32/2/2 36/2/2
f 33/2/2 34/2/2 37/2/2
f 37/2/2 34/2/2 38/2/2
f 39/2/2 40/2/2 42/2/2
f 41/2/2 42/2/2 43/2/2
f 42/2/2 40/2/2 44/2/2
f 43/2/2 42/2/2 44/2/2
f 45/2/2 46/2/2 49/2/2
f 47/2/2 48/2/2 50/2/2
f 50/2/2 48/2/2 51/2/2
f 45/2/2 49/2/2 52/2/2
f 49/1/2 50/1/2 52/1/2
f 50/1/2 51/1/2 52/1/2
f 52/1/2 51/1/2 53/1/2
f 53/1/2 51/1/2 54/1/2
f 45/2/2 52/2/2 55/2/2
f 53/2/2 54/2/2 56/2/2
f 45/2/2 55/2/2 57/2/2
f 55/2/2 56/2/2 57/2/2
f 56/2/2 54/2/2 58/2/2
f 57/2/2 56/2/2 58/2/2
f 45/2/2 57/2/2 59/2/2
f 59/2/2 57/2/2 60/2/2
f 63/2/3 62/2/3 61/2/3
f 64/2/3 62/2/3 63/2/3
f 65/2/3 62/2/3 64/2/3
f 67/1/3 65/1/3 64/1/3
f 68/2/3 62/2/3 65/2/3
f 68/1/3 65/1/3 67/1/3
f 69/2/3 67/2/3 66/2/3
f 69/2/3 68/2/3 67/2/3
f 70/2/3 62/2/3 68/2/3
f 70/2/3 68/2/3 69/2/3
f 75/2/3 72/2/3 71/2/3
f 76/2/3 72/2/3 75/2/3
f 77/2/3 74/2/3 73/2/3
f 78/2/3 74/2/3 77/2/3
f 83/2/3 80/2/3 79/2/3
f 84/2/3 80/2/3 83/2/3
f 85/2/3 82/2/3 81/2/3
f 86/2/3 82/2/3 85/2/3
f 87/2/4 88/2/4 93/2/4
f 93/2/4 88/2/4 94/2/4
f 89/2/4 90/2/4 95/2/4
f 95/2/4 90/2/4 96/2/4
f 91/2/4 92/2/4 97/2/4
f 97/2/4 92/2/4 98/2/4
f 95/1/4 96/1/4 101/1/4
f 96/1/4 97/1/4 101/1/4
f 97/1/4 98/1/4 101/1/4
f 101/1/4 98/1/4 102/1/4
f 102/1/4 98/1/4 103/1/4
f 98/2/4 92/2/4 104/2/4
f 103/1/4 98/1/4 104/1/4
f 99/2/4 100/2/4 105/2/4
f 105/2/4 100/2/4 106/2/4
f 101/2/4 102/2/4 107/2/4
f 107/2/4 102/2/4 108/2/4
f 103/2/4 104/2/4 109/2/4
f 104/2/4 92/2/4 110/2/4
f 109/2/4 104/2/4 110/2/4
f 111/2/4 112/2/4 115/2/4
f 112/1/4 113/1/4 116/1/4
f 115/2/4 112/2/4 116/2/4
f 113/2/4 114/2/4 117/2/4
f 116/1/4 113/1/4 117/1/4
f 117/2/4 114/2/4 118/2/4
f 116/1/4 117/1/4 120/1/4
f 120/1/4 117/1/4 121/1/4
f 119/2/4 120/2/4 123/2/4
f 120/1/4 121/1/4 124/1/4
f 123/2/4 120/2/4 124/2/4
f 121/2/4 122/2/4 125/2/4
f 124/1/4 121/1/4 125/1/4
f 125/2/4 122/2/4 126/2/4
f 131/2/5 128/2/5 127/2/5
f 132/2/5 128/2/5 131/2/5
f 133/2/5 130/2/5 129/2/5
f 134/2/5 130/2/5 133/2/5
f 139/2/5 136/2/5 135/2/5
f 140/2/5 136/2/5 139/2/5
f 141/2/5 138/2/5 137/2/5
f 142/2/5 138/2/5 141/2/5
f 146/1/5 144/1/5 143/1/5
f 147/1/5 144/1/5 146/1/5
f 149/1/5 146/1/5 145/1/5
f 149/1/5 148/1/5 147/1/5
f 149/1/5 147/1/5 146/1/5
f 150/1/5 148/1/5 149/1/5
f 151/1/5 148/1/5 150/1/5
f 152/1/5 148/1/5 151/1/5
f 153/1/5 151/1/5 150/1/5
f 154/1/5 151/1/5 153/1/5
f 159/2/5 156/2/5 155/2/5
f 160/2/5 156/2/5 159/2/5
f 161/2/5 158/2/5 157/2/5
f 162/2/5 158/2/5 161/2/5
f 163/1/6 164/1/6 167/1/6
f 165/1/6 166/1/6 167/1/6
f 164/1/6 165/1/6 167/1/6
f 167/1/6 166/1/6 168/1/6
f 168/1/6 166/1/6 169/1/6
f 169/1/6 166/1/6 170/1/6
f 168/1/6 169/1/6 171/1/6
f 171/1/6 169/1/6 172/1/6
f 173/2/6 174/2/6 177/2/6
f 177/2/6 174/2/6 178/2/6
f 175/2/6 176/2/6 179/2/6
f 179/2/6 176/2/6 180/2/6
f 181/2/6 182/2/6 183/2/6
f 183/2/6 182/2/6 184/2/6
