# MagicaVoxel @ Ephtracy

# group
o 

# material
mtllib table for bar1.mtl
usemtl palette

# normals
vn -1 0 0
vn 1 0 0
vn 0 0 1
vn 0 0 -1
vn 0 -1 0
vn 0 1 0

# texcoords
vt 0.373047 0.5
vt 0.841797 0.5

# verts
v -0.3 0.5 0.2
v -0.3 0.5 0.0999999
v -0.3 0.6 0.2
v -0.3 0.6 0.0999999
v -0.2 0.5 0.3
v -0.2 0.5 0.2
v -0.2 0.5 0.0999999
v -0.2 0.5 -5.96046e-008
v -0.2 0.6 0.3
v -0.2 0.6 0.2
v -0.2 0.6 0.0999999
v -0.2 0.6 -5.96046e-008
v -0.1 0.5 0.4
v -0.1 0.5 0.3
v -0.1 0.5 -5.96046e-008
v -0.1 0.5 -0.1
v -0.1 0.6 0.4
v -0.1 0.6 0.3
v -0.1 0.6 -5.96046e-008
v -0.1 0.6 -0.1
v 2.98023e-008 0.5 0.5
v 2.98023e-008 0.5 0.4
v 2.98023e-008 0.5 -0.1
v 2.98023e-008 0.5 -0.2
v 2.98023e-008 0.6 0.5
v 2.98023e-008 0.6 0.4
v 2.98023e-008 0.6 -0.1
v 2.98023e-008 0.6 -0.2
v 0.1 0 0.2
v 0.1 0 0.0999999
v 0.1 0.5 0.6
v 0.1 0.5 0.5
v 0.1 0.5 0.2
v 0.1 0.5 0.0999999
v 0.1 0.5 -0.2
v 0.1 0.5 -0.3
v 0.1 0.6 0.6
v 0.1 0.6 0.5
v 0.1 0.6 -0.2
v 0.1 0.6 -0.3
v 0.2 0 0.2
v 0.2 0 0.0999999
v 0.2 0.5 0.6
v 0.2 0.5 0.5
v 0.2 0.5 0.2
v 0.2 0.5 0.0999999
v 0.2 0.5 -0.2
v 0.2 0.5 -0.3
v 0.2 0.6 0.6
v 0.2 0.6 0.5
v 0.2 0.6 -0.2
v 0.2 0.6 -0.3
v 0.3 0.5 0.5
v 0.3 0.5 0.4
v 0.3 0.5 -0.1
v 0.3 0.5 -0.2
v 0.3 0.6 0.5
v 0.3 0.6 0.4
v 0.3 0.6 -0.1
v 0.3 0.6 -0.2
v 0.4 0.5 0.4
v 0.4 0.5 0.3
v 0.4 0.5 -5.96046e-008
v 0.4 0.5 -0.1
v 0.4 0.6 0.4
v 0.4 0.6 0.3
v 0.4 0.6 -5.96046e-008
v 0.4 0.6 -0.1
v 0.5 0.5 0.3
v 0.5 0.5 0.2
v 0.5 0.5 0.0999999
v 0.5 0.5 -5.96046e-008
v 0.5 0.6 0.3
v 0.5 0.6 0.2
v 0.5 0.6 0.0999999
v 0.5 0.6 -5.96046e-008
v 0.6 0.5 0.2
v 0.6 0.5 0.0999999
v 0.6 0.6 0.2
v 0.6 0.6 0.0999999
v 0.1 0.5 0.6
v 0.1 0.6 0.6
v 0.2 0.5 0.6
v 0.2 0.6 0.6
v 2.98023e-008 0.5 0.5
v 2.98023e-008 0.6 0.5
v 0.1 0.5 0.5
v 0.1 0.6 0.5
v 0.2 0.5 0.5
v 0.2 0.6 0.5
v 0.3 0.5 0.5
v 0.3 0.6 0.5
v -0.1 0.5 0.4
v -0.1 0.6 0.4
v 2.98023e-008 0.5 0.4
v 2.98023e-008 0.6 0.4
v 0.3 0.5 0.4
v 0.3 0.6 0.4
v 0.4 0.5 0.4
v 0.4 0.6 0.4
v -0.2 0.5 0.3
v -0.2 0.6 0.3
v -0.1 0.5 0.3
v -0.1 0.6 0.3
v 0.4 0.5 0.3
v 0.4 0.6 0.3
v 0.5 0.5 0.3
v 0.5 0.6 0.3
v -0.3 0.5 0.2
v -0.3 0.6 0.2
v -0.2 0.5 0.2
v -0.2 0.6 0.2
v 0.1 0 0.2
v 0.1 0.5 0.2
v 0.2 0 0.2
v 0.2 0.5 0.2
v 0.5 0.5 0.2
v 0.5 0.6 0.2
v 0.6 0.5 0.2
v 0.6 0.6 0.2
v -0.3 0.5 0.0999999
v -0.3 0.6 0.0999999
v -0.2 0.5 0.0999999
v -0.2 0.6 0.0999999
v 0.1 0 0.0999999
v 0.1 0.5 0.0999999
v 0.2 0 0.0999999
v 0.2 0.5 0.0999999
v 0.5 0.5 0.0999999
v 0.5 0.6 0.0999999
v 0.6 0.5 0.0999999
v 0.6 0.6 0.0999999
v -0.2 0.5 -5.96046e-008
v -0.2 0.6 -5.96046e-008
v -0.1 0.5 -5.96046e-008
v -0.1 0.6 -5.96046e-008
v 0.4 0.5 -5.96046e-008
v 0.4 0.6 -5.96046e-008
v 0.5 0.5 -5.96046e-008
v 0.5 0.6 -5.96046e-008
v -0.1 0.5 -0.1
v -0.1 0.6 -0.1
v 2.98023e-008 0.5 -0.1
v 2.98023e-008 0.6 -0.1
v 0.3 0.5 -0.1
v 0.3 0.6 -0.1
v 0.4 0.5 -0.1
v 0.4 0.6 -0.1
v 2.98023e-008 0.5 -0.2
v 2.98023e-008 0.6 -0.2
v 0.1 0.5 -0.2
v 0.1 0.6 -0.2
v 0.2 0.5 -0.2
v 0.2 0.6 -0.2
v 0.3 0.5 -0.2
v 0.3 0.6 -0.2
v 0.1 0.5 -0.3
v 0.1 0.6 -0.3
v 0.2 0.5 -0.3
v 0.2 0.6 -0.3
v 0.1 0 0.2
v 0.2 0 0.2
v 0.1 0 0.0999999
v 0.2 0 0.0999999
v 0.1 0.5 0.6
v 0.2 0.5 0.6
v 2.98023e-008 0.5 0.5
v 0.1 0.5 0.5
v 0.2 0.5 0.5
v 0.3 0.5 0.5
v -0.1 0.5 0.4
v 2.98023e-008 0.5 0.4
v 0.1 0.5 0.4
v 0.2 0.5 0.4
v 0.3 0.5 0.4
v 0.4 0.5 0.4
v -0.2 0.5 0.3
v -0.1 0.5 0.3
v 2.98023e-008 0.5 0.3
v 0.3 0.5 0.3
v 0.4 0.5 0.3
v 0.5 0.5 0.3
v -0.3 0.5 0.2
v -0.2 0.5 0.2
v -0.1 0.5 0.2
v 0.1 0.5 0.2
v 0.2 0.5 0.2
v 0.4 0.5 0.2
v 0.5 0.5 0.2
v 0.6 0.5 0.2
v -0.3 0.5 0.0999999
v -0.2 0.5 0.0999999
v -0.1 0.5 0.0999999
v 0.1 0.5 0.0999999
v 0.2 0.5 0.0999999
v 0.4 0.5 0.0999999
v 0.5 0.5 0.0999999
v 0.6 0.5 0.0999999
v -0.2 0.5 -5.96046e-008
v -0.1 0.5 -5.96046e-008
v 2.98023e-008 0.5 -5.96046e-008
v 0.3 0.5 -5.96046e-008
v 0.4 0.5 -5.96046e-008
v 0.5 0.5 -5.96046e-008
v -0.1 0.5 -0.1
v 2.98023e-008 0.5 -0.1
v 0.1 0.5 -0.1
v 0.2 0.5 -0.1
v 0.3 0.5 -0.1
v 0.4 0.5 -0.1
v 2.98023e-008 0.5 -0.2
v 0.1 0.5 -0.2
v 0.2 0.5 -0.2
v 0.3 0.5 -0.2
v 0.1 0.5 -0.3
v 0.2 0.5 -0.3
v 0.1 0.6 0.6
v 0.2 0.6 0.6
v 2.98023e-008 0.6 0.5
v 0.1 0.6 0.5
v 0.2 0.6 0.5
v 0.3 0.6 0.5
v -0.1 0.6 0.4
v 2.98023e-008 0.6 0.4
v 0.1 0.6 0.4
v 0.2 0.6 0.4
v 0.3 0.6 0.4
v 0.4 0.6 0.4
v -0.2 0.6 0.3
v -0.1 0.6 0.3
v 2.98023e-008 0.6 0.3
v 0.3 0.6 0.3
v 0.4 0.6 0.3
v 0.5 0.6 0.3
v -0.3 0.6 0.2
v -0.2 0.6 0.2
v -0.1 0.6 0.2
v 0.4 0.6 0.2
v 0.5 0.6 0.2
v 0.6 0.6 0.2
v -0.3 0.6 0.0999999
v -0.2 0.6 0.0999999
v -0.1 0.6 0.0999999
v 0.4 0.6 0.0999999
v 0.5 0.6 0.0999999
v 0.6 0.6 0.0999999
v -0.2 0.6 -5.96046e-008
v -0.1 0.6 -5.96046e-008
v 2.98023e-008 0.6 -5.96046e-008
v 0.3 0.6 -5.96046e-008
v 0.4 0.6 -5.96046e-008
v 0.5 0.6 -5.96046e-008
v -0.1 0.6 -0.1
v 2.98023e-008 0.6 -0.1
v 0.1 0.6 -0.1
v 0.2 0.6 -0.1
v 0.3 0.6 -0.1
v 0.4 0.6 -0.1
v 2.98023e-008 0.6 -0.2
v 0.1 0.6 -0.2
v 0.2 0.6 -0.2
v 0.3 0.6 -0.2
v 0.1 0.6 -0.3
v 0.2 0.6 -0.3

# faces
f 3/2/1 2/2/1 1/2/1
f 4/2/1 2/2/1 3/2/1
f 9/2/1 6/2/1 5/2/1
f 10/2/1 6/2/1 9/2/1
f 11/2/1 8/2/1 7/2/1
f 12/2/1 8/2/1 11/2/1
f 17/2/1 14/2/1 13/2/1
f 18/2/1 14/2/1 17/2/1
f 19/2/1 16/2/1 15/2/1
f 20/2/1 16/2/1 19/2/1
f 25/2/1 22/2/1 21/2/1
f 26/2/1 22/2/1 25/2/1
f 27/2/1 24/2/1 23/2/1
f 28/2/1 24/2/1 27/2/1
f 33/1/1 30/1/1 29/1/1
f 34/1/1 30/1/1 33/1/1
f 37/2/1 32/2/1 31/2/1
f 38/2/1 32/2/1 37/2/1
f 39/2/1 36/2/1 35/2/1
f 40/2/1 36/2/1 39/2/1
f 41/1/2 42/1/2 45/1/2
f 45/1/2 42/1/2 46/1/2
f 43/2/2 44/2/2 49/2/2
f 49/2/2 44/2/2 50/2/2
f 47/2/2 48/2/2 51/2/2
f 51/2/2 48/2/2 52/2/2
f 53/2/2 54/2/2 57/2/2
f 57/2/2 54/2/2 58/2/2
f 55/2/2 56/2/2 59/2/2
f 59/2/2 56/2/2 60/2/2
f 61/2/2 62/2/2 65/2/2
f 65/2/2 62/2/2 66/2/2
f 63/2/2 64/2/2 67/2/2
f 67/2/2 64/2/2 68/2/2
f 69/2/2 70/2/2 73/2/2
f 73/2/2 70/2/2 74/2/2
f 71/2/2 72/2/2 75/2/2
f 75/2/2 72/2/2 76/2/2
f 77/2/2 78/2/2 79/2/2
f 79/2/2 78/2/2 80/2/2
f 83/2/3 82/2/3 81/2/3
f 84/2/3 82/2/3 83/2/3
f 87/2/3 86/2/3 85/2/3
f 88/2/3 86/2/3 87/2/3
f 91/2/3 90/2/3 89/2/3
f 92/2/3 90/2/3 91/2/3
f 95/2/3 94/2/3 93/2/3
f 96/2/3 94/2/3 95/2/3
f 99/2/3 98/2/3 97/2/3
f 100/2/3 98/2/3 99/2/3
f 103/2/3 102/2/3 101/2/3
f 104/2/3 102/2/3 103/2/3
f 107/2/3 106/2/3 105/2/3
f 108/2/3 106/2/3 107/2/3
f 111/2/3 110/2/3 109/2/3
f 112/2/3 110/2/3 111/2/3
f 115/1/3 114/1/3 113/1/3
f 116/1/3 114/1/3 115/1/3
f 119/2/3 118/2/3 117/2/3
f 120/2/3 118/2/3 119/2/3
f 121/2/4 122/2/4 123/2/4
f 123/2/4 122/2/4 124/2/4
f 125/1/4 126/1/4 127/1/4
f 127/1/4 126/1/4 128/1/4
f 129/2/4 130/2/4 131/2/4
f 131/2/4 130/2/4 132/2/4
f 133/2/4 134/2/4 135/2/4
f 135/2/4 134/2/4 136/2/4
f 137/2/4 138/2/4 139/2/4
f 139/2/4 138/2/4 140/2/4
f 141/2/4 142/2/4 143/2/4
f 143/2/4 142/2/4 144/2/4
f 145/2/4 146/2/4 147/2/4
f 147/2/4 146/2/4 148/2/4
f 149/2/4 150/2/4 151/2/4
f 151/2/4 150/2/4 152/2/4
f 153/2/4 154/2/4 155/2/4
f 155/2/4 154/2/4 156/2/4
f 157/2/4 158/2/4 159/2/4
f 159/2/4 158/2/4 160/2/4
f 163/1/5 162/1/5 161/1/5
f 164/1/5 162/1/5 163/1/5
f 168/2/5 166/2/5 165/2/5
f 169/2/5 166/2/5 168/2/5
f 172/2/5 168/2/5 167/2/5
f 173/1/5 169/1/5 168/1/5
f 173/2/5 168/2/5 172/2/5
f 174/2/5 170/2/5 169/2/5
f 174/1/5 169/1/5 173/1/5
f 175/2/5 170/2/5 174/2/5
f 178/2/5 172/2/5 171/2/5
f 179/1/5 173/1/5 172/1/5
f 179/1/5 174/1/5 173/1/5
f 179/2/5 172/2/5 178/2/5
f 179/1/5 175/1/5 174/1/5
f 180/2/5 176/2/5 175/2/5
f 180/1/5 175/1/5 179/1/5
f 181/2/5 176/2/5 180/2/5
f 184/2/5 178/2/5 177/2/5
f 185/1/5 179/1/5 178/1/5
f 185/1/5 180/1/5 179/1/5
f 185/2/5 178/2/5 184/2/5
f 185/1/5 181/1/5 180/1/5
f 186/1/5 181/1/5 185/1/5
f 187/1/5 181/1/5 186/1/5
f 188/2/5 182/2/5 181/2/5
f 188/1/5 181/1/5 187/1/5
f 189/2/5 182/2/5 188/2/5
f 191/2/5 184/2/5 183/2/5
f 192/1/5 185/1/5 184/1/5
f 192/2/5 184/2/5 191/2/5
f 192/1/5 186/1/5 185/1/5
f 193/1/5 186/1/5 192/1/5
f 194/1/5 186/1/5 193/1/5
f 195/1/5 189/1/5 188/1/5
f 195/1/5 188/1/5 187/1/5
f 196/1/5 189/1/5 195/1/5
f 197/2/5 190/2/5 189/2/5
f 197/1/5 189/1/5 196/1/5
f 198/2/5 190/2/5 197/2/5
f 199/2/5 193/2/5 192/2/5
f 200/1/5 196/1/5 195/1/5
f 200/2/5 193/2/5 199/2/5
f 200/1/5 194/1/5 193/1/5
f 200/1/5 195/1/5 194/1/5
f 201/1/5 196/1/5 200/1/5
f 202/1/5 196/1/5 201/1/5
f 203/2/5 197/2/5 196/2/5
f 203/1/5 196/1/5 202/1/5
f 204/2/5 197/2/5 203/2/5
f 205/2/5 201/2/5 200/2/5
f 206/1/5 202/1/5 201/1/5
f 206/2/5 201/2/5 205/2/5
f 207/1/5 202/1/5 206/1/5
f 208/1/5 202/1/5 207/1/5
f 209/2/5 203/2/5 202/2/5
f 209/1/5 202/1/5 208/1/5
f 210/2/5 203/2/5 209/2/5
f 211/2/5 207/2/5 206/2/5
f 212/1/5 208/1/5 207/1/5
f 212/2/5 207/2/5 211/2/5
f 213/2/5 209/2/5 208/2/5
f 213/1/5 208/1/5 212/1/5
f 214/2/5 209/2/5 213/2/5
f 215/2/5 213/2/5 212/2/5
f 216/2/5 213/2/5 215/2/5
f 217/2/6 218/2/6 220/2/6
f 220/2/6 218/2/6 221/2/6
f 219/2/6 220/2/6 224/2/6
f 220/1/6 221/1/6 225/1/6
f 224/2/6 220/2/6 225/2/6
f 221/2/6 222/2/6 226/2/6
f 225/1/6 221/1/6 226/1/6
f 226/2/6 222/2/6 227/2/6
f 223/2/6 224/2/6 230/2/6
f 224/1/6 225/1/6 231/1/6
f 225/1/6 226/1/6 231/1/6
f 230/2/6 224/2/6 231/2/6
f 226/1/6 227/1/6 231/1/6
f 227/2/6 228/2/6 232/2/6
f 231/1/6 227/1/6 232/1/6
f 232/2/6 228/2/6 233/2/6
f 229/2/6 230/2/6 236/2/6
f 230/1/6 231/1/6 237/1/6
f 231/1/6 232/1/6 237/1/6
f 236/2/6 230/2/6 237/2/6
f 232/1/6 233/1/6 237/1/6
f 233/2/6 234/2/6 238/2/6
f 237/1/6 233/1/6 238/1/6
f 238/2/6 234/2/6 239/2/6
f 235/2/6 236/2/6 241/2/6
f 236/1/6 237/1/6 242/1/6
f 241/2/6 236/2/6 242/2/6
f 237/1/6 238/1/6 242/1/6
f 238/1/6 239/1/6 242/1/6
f 242/1/6 239/1/6 243/1/6
f 243/1/6 239/1/6 244/1/6
f 239/2/6 240/2/6 245/2/6
f 244/1/6 239/1/6 245/1/6
f 245/2/6 240/2/6 246/2/6
f 242/2/6 243/2/6 247/2/6
f 243/1/6 244/1/6 248/1/6
f 247/2/6 243/2/6 248/2/6
f 248/1/6 244/1/6 249/1/6
f 249/1/6 244/1/6 250/1/6
f 244/2/6 245/2/6 251/2/6
f 250/1/6 244/1/6 251/1/6
f 251/2/6 245/2/6 252/2/6
f 248/2/6 249/2/6 253/2/6
f 249/1/6 250/1/6 254/1/6
f 253/2/6 249/2/6 254/2/6
f 254/1/6 250/1/6 255/1/6
f 255/1/6 250/1/6 256/1/6
f 250/2/6 251/2/6 257/2/6
f 256/1/6 250/1/6 257/1/6
f 257/2/6 251/2/6 258/2/6
f 254/2/6 255/2/6 259/2/6
f 255/1/6 256/1/6 260/1/6
f 259/2/6 255/2/6 260/2/6
f 256/2/6 257/2/6 261/2/6
f 260/1/6 256/1/6 261/1/6
f 261/2/6 257/2/6 262/2/6
f 260/2/6 261/2/6 263/2/6
f 263/2/6 261/2/6 264/2/6
