# MagicaVoxel @ Ephtracy

# group
o 

# material
mtllib door.mtl
usemtl palette

# normals
vn -1 0 0
vn 1 0 0
vn 0 0 1
vn 0 0 -1
vn 0 -1 0
vn 0 1 0

# texcoords
vt 0.865234 0.5
vt 0.869141 0.5
vt 0.873047 0.5

# verts
v -0.4 1 0.3
v -0.4 1 0.2
v -0.4 1.2 0.3
v -0.4 1.2 0.2
v -0.3 0 0.4
v -0.3 0 -0.6
v -0.3 0.1 0.3
v -0.3 0.1 -0.5
v -0.3 1 0.3
v -0.3 1 0.2
v -0.3 1.2 0.3
v -0.3 1.2 0.2
v -0.3 1.2 -0.5
v -0.3 1.3 0.3
v -0.3 1.3 -0.5
v -0.3 1.9 0.3
v -0.3 1.9 -0.5
v -0.3 2 0.4
v -0.3 2 -0.6
v -0.2 0 0.4
v -0.2 0 -0.6
v -0.2 0.1 0.3
v -0.2 0.1 -0.5
v -0.2 1 0.3
v -0.2 1 0.2
v -0.2 1.2 0.3
v -0.2 1.2 0.2
v -0.2 1.2 -0.5
v -0.2 1.3 0.3
v -0.2 1.3 -0.5
v -0.2 1.9 0.3
v -0.2 1.9 -0.5
v -0.2 2 0.4
v -0.2 2 -0.6
v -0.1 1 0.3
v -0.1 1 0.2
v -0.1 1.2 0.3
v -0.1 1.2 0.2
v -0.3 0 0.4
v -0.3 2 0.4
v -0.2 0 0.4
v -0.2 2 0.4
v -0.4 1 0.3
v -0.4 1.2 0.3
v -0.3 1 0.3
v -0.3 1.2 0.3
v -0.2 1 0.3
v -0.2 1.2 0.3
v -0.1 1 0.3
v -0.1 1.2 0.3
v -0.4 1 0.2
v -0.4 1.2 0.2
v -0.3 1 0.2
v -0.3 1.2 0.2
v -0.2 1 0.2
v -0.2 1.2 0.2
v -0.1 1 0.2
v -0.1 1.2 0.2
v -0.3 0 -0.6
v -0.3 2 -0.6
v -0.2 0 -0.6
v -0.2 2 -0.6
v -0.3 0 0.4
v -0.2 0 0.4
v -0.3 0 -0.6
v -0.2 0 -0.6
v -0.4 1 0.3
v -0.3 1 0.3
v -0.2 1 0.3
v -0.1 1 0.3
v -0.4 1 0.2
v -0.3 1 0.2
v -0.2 1 0.2
v -0.1 1 0.2
v -0.4 1.2 0.3
v -0.3 1.2 0.3
v -0.2 1.2 0.3
v -0.1 1.2 0.3
v -0.4 1.2 0.2
v -0.3 1.2 0.2
v -0.2 1.2 0.2
v -0.1 1.2 0.2
v -0.3 2 0.4
v -0.2 2 0.4
v -0.3 2 -0.6
v -0.2 2 -0.6

# faces
f 3/3/1 2/3/1 1/3/1
f 4/3/1 2/3/1 3/3/1
f 7/2/1 6/2/1 5/2/1
f 8/2/1 6/2/1 7/2/1
f 9/2/1 7/2/1 5/2/1
f 9/1/1 8/1/1 7/1/1
f 10/1/1 8/1/1 9/1/1
f 11/2/1 9/2/1 5/2/1
f 12/1/1 8/1/1 10/1/1
f 13/2/1 6/2/1 8/2/1
f 13/1/1 8/1/1 12/1/1
f 14/2/1 12/2/1 11/2/1
f 14/2/1 11/2/1 5/2/1
f 14/2/1 13/2/1 12/2/1
f 15/2/1 6/2/1 13/2/1
f 15/2/1 13/2/1 14/2/1
f 16/2/1 14/2/1 5/2/1
f 16/1/1 15/1/1 14/1/1
f 17/2/1 6/2/1 15/2/1
f 17/1/1 15/1/1 16/1/1
f 18/2/1 16/2/1 5/2/1
f 18/2/1 17/2/1 16/2/1
f 19/2/1 6/2/1 17/2/1
f 19/2/1 17/2/1 18/2/1
f 20/2/2 21/2/2 22/2/2
f 22/2/2 21/2/2 23/2/2
f 20/2/2 22/2/2 24/2/2
f 22/1/2 23/1/2 24/1/2
f 24/1/2 23/1/2 25/1/2
f 20/2/2 24/2/2 26/2/2
f 25/1/2 23/1/2 27/1/2
f 23/2/2 21/2/2 28/2/2
f 27/1/2 23/1/2 28/1/2
f 26/2/2 27/2/2 29/2/2
f 20/2/2 26/2/2 29/2/2
f 27/2/2 28/2/2 29/2/2
f 28/2/2 21/2/2 30/2/2
f 29/2/2 28/2/2 30/2/2
f 20/2/2 29/2/2 31/2/2
f 29/1/2 30/1/2 31/1/2
f 30/2/2 21/2/2 32/2/2
f 31/1/2 30/1/2 32/1/2
f 20/2/2 31/2/2 33/2/2
f 31/2/2 32/2/2 33/2/2
f 32/2/2 21/2/2 34/2/2
f 33/2/2 32/2/2 34/2/2
f 35/3/2 36/3/2 37/3/2
f 37/3/2 36/3/2 38/3/2
f 41/2/3 40/2/3 39/2/3
f 42/2/3 40/2/3 41/2/3
f 45/3/3 44/3/3 43/3/3
f 46/3/3 44/3/3 45/3/3
f 49/3/3 48/3/3 47/3/3
f 50/3/3 48/3/3 49/3/3
f 51/3/4 52/3/4 53/3/4
f 53/3/4 52/3/4 54/3/4
f 55/3/4 56/3/4 57/3/4
f 57/3/4 56/3/4 58/3/4
f 59/2/4 60/2/4 61/2/4
f 61/2/4 60/2/4 62/2/4
f 65/2/5 64/2/5 63/2/5
f 66/2/5 64/2/5 65/2/5
f 71/3/5 68/3/5 67/3/5
f 72/3/5 68/3/5 71/3/5
f 73/3/5 70/3/5 69/3/5
f 74/3/5 70/3/5 73/3/5
f 75/3/6 76/3/6 79/3/6
f 79/3/6 76/3/6 80/3/6
f 77/3/6 78/3/6 81/3/6
f 81/3/6 78/3/6 82/3/6
f 83/2/6 84/2/6 85/2/6
f 85/2/6 84/2/6 86/2/6
