# MagicaVoxel @ Ephtracy

# group
o 

# material
mtllib guy_hand_right.mtl
usemtl palette

# normals
vn -1 0 0
vn 1 0 0
vn 0 0 1
vn 0 0 -1
vn 0 -1 0
vn 0 1 0

# texcoords
vt 0.0605469 0.5
vt 0.962891 0.5
vt 0.994141 0.5

# verts
v -0.5 1.1 -0.8
v -0.5 1.1 -0.9
v -0.5 1.5 -0.8
v -0.5 1.5 -0.9
v -0.2 1.5 -0.8
v -0.2 1.5 -0.9
v -0.2 1.5 -1
v -0.2 1.6 -0.8
v -0.2 1.6 -0.9
v -0.2 1.7 -0.8
v -0.2 1.7 -1
v -0.2 2.7 -0.7
v -0.2 2.7 -0.8
v -0.2 2.8 -0.9
v -0.2 2.8 -1
v -0.2 2.9 -0.8
v -0.2 2.9 -0.9
v -0.2 3 -0.7
v -0.2 3 -0.8
v 0.1 1.5 -0.8
v 0.1 1.5 -0.9
v 0.1 1.5 -1
v 0.1 1.6 -0.8
v 0.1 1.6 -0.9
v 0.1 1.7 -0.8
v 0.1 1.7 -1
v 0.1 2.7 -0.7
v 0.1 2.7 -0.8
v 0.1 2.8 -0.9
v 0.1 2.8 -1
v 0.1 2.9 -0.8
v 0.1 2.9 -0.9
v 0.1 3 -0.7
v 0.1 3 -0.8
v 0.4 1.1 -0.8
v 0.4 1.1 -0.9
v 0.4 1.5 -0.8
v 0.4 1.5 -0.9
v -0.2 2.7 -0.7
v -0.2 3 -0.7
v 0.1 2.7 -0.7
v 0.1 3 -0.7
v -0.5 1.1 -0.8
v -0.5 1.5 -0.8
v -0.2 1.5 -0.8
v -0.2 1.6 -0.8
v -0.2 1.7 -0.8
v -0.2 2.7 -0.8
v 0.1 1.5 -0.8
v 0.1 1.6 -0.8
v 0.1 1.7 -0.8
v 0.1 2.7 -0.8
v 0.4 1.1 -0.8
v 0.4 1.5 -0.8
v -0.2 2.9 -0.8
v -0.2 3 -0.8
v 0.1 2.9 -0.8
v 0.1 3 -0.8
v -0.5 1.1 -0.9
v -0.5 1.5 -0.9
v -0.2 1.5 -0.9
v -0.2 2.8 -0.9
v -0.2 2.9 -0.9
v 0.1 1.5 -0.9
v 0.1 2.8 -0.9
v 0.1 2.9 -0.9
v 0.4 1.1 -0.9
v 0.4 1.5 -0.9
v -0.2 1.5 -1
v -0.2 1.7 -1
v -0.2 2.8 -1
v 0.1 1.5 -1
v 0.1 1.7 -1
v 0.1 2.8 -1
v -0.5 1.1 -0.8
v 0.4 1.1 -0.8
v -0.5 1.1 -0.9
v 0.4 1.1 -0.9
v -0.2 1.5 -0.9
v 0.1 1.5 -0.9
v -0.2 1.5 -1
v 0.1 1.5 -1
v -0.2 2.7 -0.7
v 0.1 2.7 -0.7
v -0.2 2.7 -0.8
v 0.1 2.7 -0.8
v -0.5 1.5 -0.8
v -0.2 1.5 -0.8
v 0.1 1.5 -0.8
v 0.4 1.5 -0.8
v -0.5 1.5 -0.9
v -0.2 1.5 -0.9
v 0.1 1.5 -0.9
v 0.4 1.5 -0.9
v -0.2 2.8 -0.9
v 0.1 2.8 -0.9
v -0.2 2.8 -1
v 0.1 2.8 -1
v -0.2 2.9 -0.8
v 0.1 2.9 -0.8
v -0.2 2.9 -0.9
v 0.1 2.9 -0.9
v -0.2 3 -0.7
v 0.1 3 -0.7
v -0.2 3 -0.8
v 0.1 3 -0.8

# faces
f 3/3/1 2/3/1 1/3/1
f 4/3/1 2/3/1 3/3/1
f 8/3/1 6/3/1 5/3/1
f 9/1/1 7/1/1 6/1/1
f 9/3/1 6/3/1 8/3/1
f 10/1/1 9/1/1 8/1/1
f 11/1/1 7/1/1 9/1/1
f 11/1/1 9/1/1 10/1/1
f 13/2/1 11/2/1 10/2/1
f 14/2/1 11/2/1 13/2/1
f 14/2/1 13/2/1 12/2/1
f 15/2/1 11/2/1 14/2/1
f 16/2/1 14/2/1 12/2/1
f 17/2/1 14/2/1 16/2/1
f 18/2/1 16/2/1 12/2/1
f 19/2/1 16/2/1 18/2/1
f 20/3/2 21/3/2 23/3/2
f 21/1/2 22/1/2 24/1/2
f 23/3/2 21/3/2 24/3/2
f 23/1/2 24/1/2 25/1/2
f 24/1/2 22/1/2 26/1/2
f 25/1/2 24/1/2 26/1/2
f 25/2/2 26/2/2 28/2/2
f 28/2/2 26/2/2 29/2/2
f 27/2/2 28/2/2 29/2/2
f 29/2/2 26/2/2 30/2/2
f 27/2/2 29/2/2 31/2/2
f 31/2/2 29/2/2 32/2/2
f 27/2/2 31/2/2 33/2/2
f 33/2/2 31/2/2 34/2/2
f 35/3/2 36/3/2 37/3/2
f 37/3/2 36/3/2 38/3/2
f 41/2/3 40/2/3 39/2/3
f 42/2/3 40/2/3 41/2/3
f 45/3/3 44/3/3 43/3/3
f 49/3/3 45/3/3 43/3/3
f 49/3/3 46/3/3 45/3/3
f 50/1/3 47/1/3 46/1/3
f 50/3/3 46/3/3 49/3/3
f 51/2/3 48/2/3 47/2/3
f 51/1/3 47/1/3 50/1/3
f 52/2/3 48/2/3 51/2/3
f 53/3/3 49/3/3 43/3/3
f 54/3/3 49/3/3 53/3/3
f 55/2/4 56/2/4 57/2/4
f 57/2/4 56/2/4 58/2/4
f 59/3/4 60/3/4 61/3/4
f 59/3/4 61/3/4 64/3/4
f 62/2/4 63/2/4 65/2/4
f 65/2/4 63/2/4 66/2/4
f 59/3/4 64/3/4 67/3/4
f 67/3/4 64/3/4 68/3/4
f 69/1/4 70/1/4 72/1/4
f 70/2/4 71/2/4 73/2/4
f 72/1/4 70/1/4 73/1/4
f 73/2/4 71/2/4 74/2/4
f 77/3/5 76/3/5 75/3/5
f 78/3/5 76/3/5 77/3/5
f 81/1/5 80/1/5 79/1/5
f 82/1/5 80/1/5 81/1/5
f 85/2/5 84/2/5 83/2/5
f 86/2/5 84/2/5 85/2/5
f 87/3/6 88/3/6 91/3/6
f 91/3/6 88/3/6 92/3/6
f 89/3/6 90/3/6 93/3/6
f 93/3/6 90/3/6 94/3/6
f 95/2/6 96/2/6 97/2/6
f 97/2/6 96/2/6 98/2/6
f 99/2/6 100/2/6 101/2/6
f 101/2/6 100/2/6 102/2/6
f 103/2/6 104/2/6 105/2/6
f 105/2/6 104/2/6 106/2/6
