# MagicaVoxel @ Ephtracy

# group
o 

# material
mtllib trafficlight.mtl
usemtl palette

# normals
vn -1 0 0
vn 1 0 0
vn 0 0 1
vn 0 0 -1
vn 0 -1 0
vn 0 1 0

# texcoords
vt 0.0214844 0.5
vt 0.439453 0.5
vt 0.845703 0.5
vt 0.994141 0.5

# verts
v -0.4 0 -0.7
v -0.4 0 -1
v -0.4 0.1 -0.7
v -0.4 0.1 -1
v -0.4 1.1 -0.7
v -0.4 1.1 -1
v -0.4 1.2 -0.8
v -0.4 1.2 -0.9
v -0.4 1.3 -0.8
v -0.4 1.3 -0.9
v -0.4 1.4 -0.8
v -0.4 1.4 -0.9
v -0.4 1.5 -0.8
v -0.4 1.5 -0.9
v -0.4 1.6 -0.8
v -0.4 1.6 -0.9
v -0.4 1.7 -0.8
v -0.4 1.7 -0.9
v -0.4 1.8 -0.7
v -0.4 1.8 -1
v -0.3 0.1 -0.8
v -0.3 0.1 -0.9
v -0.3 1.1 -0.8
v -0.3 1.1 -0.9
v -0.2 0.1 -0.8
v -0.2 0.1 -0.9
v -0.2 1.1 -0.7
v -0.2 1.1 -0.8
v -0.2 1.1 -0.9
v -0.2 1.1 -1
v -0.2 1.8 -0.7
v -0.2 1.8 -1
v -0.1 0 -0.7
v -0.1 0 -1
v -0.1 0.1 -0.7
v -0.1 0.1 -1
v -0.4 0 -0.7
v -0.4 0.1 -0.7
v -0.4 1.1 -0.7
v -0.4 1.8 -0.7
v -0.2 1.1 -0.7
v -0.2 1.8 -0.7
v -0.1 0 -0.7
v -0.1 0.1 -0.7
v -0.3 0.1 -0.8
v -0.3 1.1 -0.8
v -0.2 0.1 -0.8
v -0.2 1.1 -0.8
v -0.3 0.1 -0.9
v -0.3 1.1 -0.9
v -0.2 0.1 -0.9
v -0.2 1.1 -0.9
v -0.4 0 -1
v -0.4 0.1 -1
v -0.4 1.1 -1
v -0.4 1.8 -1
v -0.2 1.1 -1
v -0.2 1.8 -1
v -0.1 0 -1
v -0.1 0.1 -1
v -0.4 0 -0.7
v -0.1 0 -0.7
v -0.4 0 -1
v -0.1 0 -1
v -0.4 1.1 -0.7
v -0.2 1.1 -0.7
v -0.3 1.1 -0.8
v -0.2 1.1 -0.8
v -0.3 1.1 -0.9
v -0.2 1.1 -0.9
v -0.4 1.1 -1
v -0.2 1.1 -1
v -0.4 0.1 -0.7
v -0.1 0.1 -0.7
v -0.3 0.1 -0.8
v -0.2 0.1 -0.8
v -0.3 0.1 -0.9
v -0.2 0.1 -0.9
v -0.4 0.1 -1
v -0.1 0.1 -1
v -0.4 1.8 -0.7
v -0.2 1.8 -0.7
v -0.4 1.8 -1
v -0.2 1.8 -1

# faces
f 3/4/1 2/4/1 1/4/1
f 4/4/1 2/4/1 3/4/1
f 7/4/1 6/4/1 5/4/1
f 8/4/1 6/4/1 7/4/1
f 9/4/1 7/4/1 5/4/1
f 9/2/1 8/2/1 7/2/1
f 10/4/1 6/4/1 8/4/1
f 10/2/1 8/2/1 9/2/1
f 11/4/1 9/4/1 5/4/1
f 11/4/1 10/4/1 9/4/1
f 12/4/1 6/4/1 10/4/1
f 12/4/1 10/4/1 11/4/1
f 13/4/1 11/4/1 5/4/1
f 13/1/1 12/1/1 11/1/1
f 14/4/1 6/4/1 12/4/1
f 14/1/1 12/1/1 13/1/1
f 15/4/1 13/4/1 5/4/1
f 15/4/1 14/4/1 13/4/1
f 16/4/1 6/4/1 14/4/1
f 16/4/1 14/4/1 15/4/1
f 17/4/1 15/4/1 5/4/1
f 17/3/1 16/3/1 15/3/1
f 18/4/1 6/4/1 16/4/1
f 18/3/1 16/3/1 17/3/1
f 19/4/1 17/4/1 5/4/1
f 19/4/1 18/4/1 17/4/1
f 20/4/1 6/4/1 18/4/1
f 20/4/1 18/4/1 19/4/1
f 23/4/1 22/4/1 21/4/1
f 24/4/1 22/4/1 23/4/1
f 25/4/2 26/4/2 28/4/2
f 28/4/2 26/4/2 29/4/2
f 27/4/2 28/4/2 31/4/2
f 29/4/2 30/4/2 31/4/2
f 28/4/2 29/4/2 31/4/2
f 31/4/2 30/4/2 32/4/2
f 33/4/2 34/4/2 35/4/2
f 35/4/2 34/4/2 36/4/2
f 41/4/3 40/4/3 39/4/3
f 42/4/3 40/4/3 41/4/3
f 43/4/3 38/4/3 37/4/3
f 44/4/3 38/4/3 43/4/3
f 47/4/3 46/4/3 45/4/3
f 48/4/3 46/4/3 47/4/3
f 49/4/4 50/4/4 51/4/4
f 51/4/4 50/4/4 52/4/4
f 55/4/4 56/4/4 57/4/4
f 57/4/4 56/4/4 58/4/4
f 53/4/4 54/4/4 59/4/4
f 59/4/4 54/4/4 60/4/4
f 63/4/5 62/4/5 61/4/5
f 64/4/5 62/4/5 63/4/5
f 67/4/5 66/4/5 65/4/5
f 68/4/5 66/4/5 67/4/5
f 69/4/5 67/4/5 65/4/5
f 71/4/5 69/4/5 65/4/5
f 71/4/5 70/4/5 69/4/5
f 72/4/5 70/4/5 71/4/5
f 73/4/6 74/4/6 75/4/6
f 75/4/6 74/4/6 76/4/6
f 73/4/6 75/4/6 77/4/6
f 76/4/6 74/4/6 78/4/6
f 73/4/6 77/4/6 79/4/6
f 77/4/6 78/4/6 79/4/6
f 78/4/6 74/4/6 80/4/6
f 79/4/6 78/4/6 80/4/6
f 81/4/6 82/4/6 83/4/6
f 83/4/6 82/4/6 84/4/6
